<mxfile host="app.diagrams.net" agent="Mozilla/5.0 (Windows NT 10.0; Win64; x64) AppleWebKit/537.36 (KHTML, like Gecko) Chrome/135.0.0.0 Safari/537.36" version="26.2.12" pages="2">
  <diagram id="R2lEEEUBdFMjLlhIrx00" name="Page-1">
    <mxGraphModel dx="499" dy="251" grid="1" gridSize="10" guides="1" tooltips="1" connect="1" arrows="1" fold="1" page="1" pageScale="1" pageWidth="850" pageHeight="1100" math="0" shadow="0" extFonts="Permanent Marker^https://fonts.googleapis.com/css?family=Permanent+Marker">
      <root>
        <mxCell id="0" />
        <mxCell id="1" parent="0" />
        <mxCell id="BIqDQKOm6haUxEqDbIF7-16" value="USER" style="whiteSpace=wrap;html=1;align=center;fontStyle=1;strokeColor=#9933FF;labelBorderColor=none;" parent="1" vertex="1">
          <mxGeometry x="80" y="110" width="100" height="50" as="geometry" />
        </mxCell>
        <mxCell id="BIqDQKOm6haUxEqDbIF7-17" value="Password" style="ellipse;whiteSpace=wrap;html=1;align=center;labelBorderColor=none;" parent="1" vertex="1">
          <mxGeometry x="70" y="10" width="100" height="40" as="geometry" />
        </mxCell>
        <mxCell id="BIqDQKOm6haUxEqDbIF7-25" value="" style="endArrow=none;html=1;rounded=0;entryX=0.5;entryY=1;entryDx=0;entryDy=0;exitX=0.5;exitY=0;exitDx=0;exitDy=0;labelBorderColor=none;" parent="1" source="BIqDQKOm6haUxEqDbIF7-16" target="BIqDQKOm6haUxEqDbIF7-17" edge="1">
          <mxGeometry relative="1" as="geometry">
            <mxPoint x="160" y="290" as="sourcePoint" />
            <mxPoint x="320" y="290" as="targetPoint" />
          </mxGeometry>
        </mxCell>
        <mxCell id="BIqDQKOm6haUxEqDbIF7-28" value="Email" style="ellipse;whiteSpace=wrap;html=1;align=center;direction=east;labelBorderColor=none;" parent="1" vertex="1">
          <mxGeometry x="140" y="50" width="60" height="40" as="geometry" />
        </mxCell>
        <mxCell id="BIqDQKOm6haUxEqDbIF7-31" value="" style="endArrow=none;html=1;rounded=0;exitX=0.636;exitY=0.975;exitDx=0;exitDy=0;entryX=0;entryY=0.25;entryDx=0;entryDy=0;exitPerimeter=0;labelBorderColor=none;" parent="1" source="BIqDQKOm6haUxEqDbIF7-44" target="BIqDQKOm6haUxEqDbIF7-16" edge="1">
          <mxGeometry relative="1" as="geometry">
            <mxPoint x="81.21320343559637" y="174.14213562373084" as="sourcePoint" />
            <mxPoint x="320" y="290" as="targetPoint" />
          </mxGeometry>
        </mxCell>
        <mxCell id="BIqDQKOm6haUxEqDbIF7-32" value="" style="endArrow=none;html=1;rounded=0;exitX=0.236;exitY=0.925;exitDx=0;exitDy=0;exitPerimeter=0;entryX=1;entryY=0;entryDx=0;entryDy=0;labelBorderColor=none;" parent="1" source="BIqDQKOm6haUxEqDbIF7-28" target="BIqDQKOm6haUxEqDbIF7-16" edge="1">
          <mxGeometry relative="1" as="geometry">
            <mxPoint x="170" y="280" as="sourcePoint" />
            <mxPoint x="330" y="280" as="targetPoint" />
          </mxGeometry>
        </mxCell>
        <mxCell id="BIqDQKOm6haUxEqDbIF7-34" value="" style="endArrow=none;html=1;rounded=0;exitX=0.704;exitY=0.045;exitDx=0;exitDy=0;exitPerimeter=0;entryX=0;entryY=1;entryDx=0;entryDy=0;labelBorderColor=none;" parent="1" source="BIqDQKOm6haUxEqDbIF7-35" target="BIqDQKOm6haUxEqDbIF7-16" edge="1">
          <mxGeometry relative="1" as="geometry">
            <mxPoint x="150" y="300" as="sourcePoint" />
            <mxPoint x="310" y="300" as="targetPoint" />
          </mxGeometry>
        </mxCell>
        <mxCell id="BIqDQKOm6haUxEqDbIF7-35" value="Username" style="ellipse;whiteSpace=wrap;html=1;align=center;labelBorderColor=none;" parent="1" vertex="1">
          <mxGeometry y="170" width="100" height="40" as="geometry" />
        </mxCell>
        <mxCell id="BIqDQKOm6haUxEqDbIF7-36" value="First_name" style="ellipse;whiteSpace=wrap;html=1;align=center;labelBorderColor=none;" parent="1" vertex="1">
          <mxGeometry y="250" width="100" height="40" as="geometry" />
        </mxCell>
        <mxCell id="BIqDQKOm6haUxEqDbIF7-37" value="Last_name" style="ellipse;whiteSpace=wrap;html=1;align=center;labelBorderColor=none;" parent="1" vertex="1">
          <mxGeometry x="70" y="215" width="100" height="40" as="geometry" />
        </mxCell>
        <mxCell id="BIqDQKOm6haUxEqDbIF7-38" value="" style="endArrow=none;html=1;rounded=0;exitX=0.584;exitY=1.045;exitDx=0;exitDy=0;exitPerimeter=0;entryX=0;entryY=0;entryDx=0;entryDy=0;labelBorderColor=none;" parent="1" source="BIqDQKOm6haUxEqDbIF7-35" target="BIqDQKOm6haUxEqDbIF7-37" edge="1">
          <mxGeometry relative="1" as="geometry">
            <mxPoint x="160" y="290" as="sourcePoint" />
            <mxPoint x="320" y="290" as="targetPoint" />
          </mxGeometry>
        </mxCell>
        <mxCell id="BIqDQKOm6haUxEqDbIF7-39" value="" style="endArrow=none;html=1;rounded=0;exitX=0.264;exitY=-0.015;exitDx=0;exitDy=0;exitPerimeter=0;entryX=0.32;entryY=1.045;entryDx=0;entryDy=0;entryPerimeter=0;labelBorderColor=none;" parent="1" source="BIqDQKOm6haUxEqDbIF7-36" target="BIqDQKOm6haUxEqDbIF7-35" edge="1">
          <mxGeometry relative="1" as="geometry">
            <mxPoint x="160" y="290" as="sourcePoint" />
            <mxPoint x="320" y="290" as="targetPoint" />
          </mxGeometry>
        </mxCell>
        <mxCell id="BIqDQKOm6haUxEqDbIF7-40" value="ORDER" style="shape=rhombus;perimeter=rhombusPerimeter;whiteSpace=wrap;html=1;align=center;fontStyle=1;strokeColor=#FF9933;labelBorderColor=none;" parent="1" vertex="1">
          <mxGeometry x="290" y="110" width="120" height="60" as="geometry" />
        </mxCell>
        <mxCell id="BIqDQKOm6haUxEqDbIF7-43" value="" style="endArrow=none;html=1;rounded=0;exitX=0.5;exitY=0;exitDx=0;exitDy=0;entryX=0.5;entryY=1;entryDx=0;entryDy=0;labelBorderColor=none;" parent="1" source="BIqDQKOm6haUxEqDbIF7-40" target="BIqDQKOm6haUxEqDbIF7-49" edge="1">
          <mxGeometry relative="1" as="geometry">
            <mxPoint x="460" y="290" as="sourcePoint" />
            <mxPoint x="620" y="290" as="targetPoint" />
          </mxGeometry>
        </mxCell>
        <mxCell id="BIqDQKOm6haUxEqDbIF7-44" value="Id" style="ellipse;whiteSpace=wrap;html=1;align=center;fontStyle=4;labelBorderColor=none;" parent="1" vertex="1">
          <mxGeometry y="50" width="100" height="40" as="geometry" />
        </mxCell>
        <mxCell id="BIqDQKOm6haUxEqDbIF7-45" value="VIEW" style="shape=rhombus;perimeter=rhombusPerimeter;whiteSpace=wrap;html=1;align=center;fontStyle=1;strokeColor=#FF9933;labelBorderColor=none;" parent="1" vertex="1">
          <mxGeometry x="190" y="240" width="120" height="60" as="geometry" />
        </mxCell>
        <mxCell id="BIqDQKOm6haUxEqDbIF7-46" value="Id" style="ellipse;whiteSpace=wrap;html=1;align=center;fontStyle=4;labelBorderColor=none;" parent="1" vertex="1">
          <mxGeometry x="360" y="50" width="70" height="40" as="geometry" />
        </mxCell>
        <mxCell id="BIqDQKOm6haUxEqDbIF7-49" value="Order_date" style="ellipse;whiteSpace=wrap;html=1;align=center;labelBorderColor=none;" parent="1" vertex="1">
          <mxGeometry x="280" y="10" width="100" height="40" as="geometry" />
        </mxCell>
        <mxCell id="BIqDQKOm6haUxEqDbIF7-50" value="User_id" style="ellipse;whiteSpace=wrap;html=1;align=center;labelBorderColor=none;" parent="1" vertex="1">
          <mxGeometry x="230" y="60" width="100" height="40" as="geometry" />
        </mxCell>
        <mxCell id="BIqDQKOm6haUxEqDbIF7-51" value="" style="endArrow=none;html=1;rounded=0;exitX=1;exitY=0;exitDx=0;exitDy=0;entryX=0.5;entryY=1;entryDx=0;entryDy=0;labelBorderColor=none;" parent="1" source="BIqDQKOm6haUxEqDbIF7-40" target="BIqDQKOm6haUxEqDbIF7-46" edge="1">
          <mxGeometry relative="1" as="geometry">
            <mxPoint x="470" y="300" as="sourcePoint" />
            <mxPoint x="630" y="300" as="targetPoint" />
          </mxGeometry>
        </mxCell>
        <mxCell id="BIqDQKOm6haUxEqDbIF7-52" value="" style="endArrow=none;html=1;rounded=0;exitX=0.19;exitY=0.377;exitDx=0;exitDy=0;exitPerimeter=0;entryX=0.612;entryY=0.975;entryDx=0;entryDy=0;entryPerimeter=0;labelBorderColor=none;" parent="1" source="BIqDQKOm6haUxEqDbIF7-40" target="BIqDQKOm6haUxEqDbIF7-50" edge="1">
          <mxGeometry relative="1" as="geometry">
            <mxPoint x="480" y="310" as="sourcePoint" />
            <mxPoint x="640" y="310" as="targetPoint" />
          </mxGeometry>
        </mxCell>
        <mxCell id="BIqDQKOm6haUxEqDbIF7-53" value="Employee_id" style="ellipse;whiteSpace=wrap;html=1;align=center;labelBorderColor=none;" parent="1" vertex="1">
          <mxGeometry x="330" y="200" width="100" height="40" as="geometry" />
        </mxCell>
        <mxCell id="BIqDQKOm6haUxEqDbIF7-54" value="Price" style="ellipse;whiteSpace=wrap;html=1;align=center;labelBorderColor=none;" parent="1" vertex="1">
          <mxGeometry x="210" y="160" width="100" height="40" as="geometry" />
        </mxCell>
        <mxCell id="BIqDQKOm6haUxEqDbIF7-55" value="" style="endArrow=none;html=1;rounded=0;exitX=0.5;exitY=0;exitDx=0;exitDy=0;entryX=0.19;entryY=0.777;entryDx=0;entryDy=0;entryPerimeter=0;labelBorderColor=none;" parent="1" source="BIqDQKOm6haUxEqDbIF7-54" target="BIqDQKOm6haUxEqDbIF7-40" edge="1">
          <mxGeometry relative="1" as="geometry">
            <mxPoint x="530" y="300" as="sourcePoint" />
            <mxPoint x="690" y="300" as="targetPoint" />
          </mxGeometry>
        </mxCell>
        <mxCell id="BIqDQKOm6haUxEqDbIF7-56" value="" style="endArrow=none;html=1;rounded=0;exitX=0.344;exitY=0.095;exitDx=0;exitDy=0;exitPerimeter=0;entryX=0.5;entryY=1;entryDx=0;entryDy=0;labelBorderColor=none;" parent="1" source="BIqDQKOm6haUxEqDbIF7-53" target="BIqDQKOm6haUxEqDbIF7-40" edge="1">
          <mxGeometry relative="1" as="geometry">
            <mxPoint x="500" y="329" as="sourcePoint" />
            <mxPoint x="660" y="329" as="targetPoint" />
          </mxGeometry>
        </mxCell>
        <mxCell id="BIqDQKOm6haUxEqDbIF7-59" value="" style="endArrow=none;html=1;rounded=0;entryX=0;entryY=0.5;entryDx=0;entryDy=0;exitX=0.5;exitY=0;exitDx=0;exitDy=0;fillColor=#f8cecc;strokeColor=#33FF33;labelBorderColor=none;" parent="1" source="BIqDQKOm6haUxEqDbIF7-68" target="BIqDQKOm6haUxEqDbIF7-45" edge="1">
          <mxGeometry relative="1" as="geometry">
            <mxPoint x="430" y="310" as="sourcePoint" />
            <mxPoint x="590" y="310" as="targetPoint" />
          </mxGeometry>
        </mxCell>
        <mxCell id="BIqDQKOm6haUxEqDbIF7-60" value="1" style="resizable=0;html=1;whiteSpace=wrap;align=right;verticalAlign=bottom;labelBorderColor=none;" parent="BIqDQKOm6haUxEqDbIF7-59" connectable="0" vertex="1">
          <mxGeometry x="1" relative="1" as="geometry" />
        </mxCell>
        <mxCell id="BIqDQKOm6haUxEqDbIF7-61" value="" style="endArrow=none;html=1;rounded=0;exitX=0.5;exitY=1;exitDx=0;exitDy=0;entryX=0.5;entryY=0;entryDx=0;entryDy=0;strokeColor=#33FF33;labelBorderColor=none;" parent="1" source="BIqDQKOm6haUxEqDbIF7-16" target="BIqDQKOm6haUxEqDbIF7-45" edge="1">
          <mxGeometry relative="1" as="geometry">
            <mxPoint x="200" y="390" as="sourcePoint" />
            <mxPoint x="360" y="390" as="targetPoint" />
          </mxGeometry>
        </mxCell>
        <mxCell id="BIqDQKOm6haUxEqDbIF7-62" value="1" style="resizable=0;html=1;whiteSpace=wrap;align=right;verticalAlign=bottom;labelBorderColor=none;" parent="BIqDQKOm6haUxEqDbIF7-61" connectable="0" vertex="1">
          <mxGeometry x="1" relative="1" as="geometry" />
        </mxCell>
        <mxCell id="BIqDQKOm6haUxEqDbIF7-66" value="" style="endArrow=none;html=1;rounded=0;exitX=1;exitY=0.5;exitDx=0;exitDy=0;entryX=0;entryY=0.5;entryDx=0;entryDy=0;strokeColor=#33FF33;labelBorderColor=none;" parent="1" source="BIqDQKOm6haUxEqDbIF7-16" target="BIqDQKOm6haUxEqDbIF7-40" edge="1">
          <mxGeometry relative="1" as="geometry">
            <mxPoint x="450" y="180" as="sourcePoint" />
            <mxPoint x="610" y="180" as="targetPoint" />
          </mxGeometry>
        </mxCell>
        <mxCell id="BIqDQKOm6haUxEqDbIF7-67" value="1" style="resizable=0;html=1;whiteSpace=wrap;align=right;verticalAlign=bottom;labelBorderColor=none;" parent="BIqDQKOm6haUxEqDbIF7-66" connectable="0" vertex="1">
          <mxGeometry x="1" relative="1" as="geometry" />
        </mxCell>
        <mxCell id="BIqDQKOm6haUxEqDbIF7-68" value="EMPLOYEE" style="whiteSpace=wrap;html=1;align=center;fontStyle=1;strokeColor=#9933FF;labelBorderColor=none;" parent="1" vertex="1">
          <mxGeometry x="120" y="380" width="100" height="40" as="geometry" />
        </mxCell>
        <mxCell id="BIqDQKOm6haUxEqDbIF7-69" value="No_of_employees" style="ellipse;whiteSpace=wrap;html=1;align=center;dashed=1;labelBorderColor=none;" parent="1" vertex="1">
          <mxGeometry x="20" y="320" width="110" height="40" as="geometry" />
        </mxCell>
        <mxCell id="BIqDQKOm6haUxEqDbIF7-70" value="" style="endArrow=none;html=1;rounded=0;entryX=0;entryY=0;entryDx=0;entryDy=0;labelBorderColor=none;" parent="1" source="BIqDQKOm6haUxEqDbIF7-69" target="BIqDQKOm6haUxEqDbIF7-68" edge="1">
          <mxGeometry relative="1" as="geometry">
            <mxPoint x="60" y="470" as="sourcePoint" />
            <mxPoint x="220" y="470" as="targetPoint" />
          </mxGeometry>
        </mxCell>
        <mxCell id="BIqDQKOm6haUxEqDbIF7-71" value="Id" style="ellipse;whiteSpace=wrap;html=1;align=center;fontStyle=4;labelBorderColor=none;" parent="1" vertex="1">
          <mxGeometry x="10" y="410" width="100" height="40" as="geometry" />
        </mxCell>
        <mxCell id="BIqDQKOm6haUxEqDbIF7-72" value="Phone" style="ellipse;whiteSpace=wrap;html=1;align=center;labelBorderColor=none;" parent="1" vertex="1">
          <mxGeometry x="110" y="450" width="70" height="40" as="geometry" />
        </mxCell>
        <mxCell id="BIqDQKOm6haUxEqDbIF7-73" value="Designation" style="ellipse;whiteSpace=wrap;html=1;align=center;labelBorderColor=none;" parent="1" vertex="1">
          <mxGeometry x="250" y="410" width="100" height="40" as="geometry" />
        </mxCell>
        <mxCell id="BIqDQKOm6haUxEqDbIF7-74" value="" style="endArrow=none;html=1;rounded=0;exitX=0.696;exitY=0.105;exitDx=0;exitDy=0;exitPerimeter=0;entryX=0;entryY=0.5;entryDx=0;entryDy=0;labelBorderColor=none;" parent="1" source="BIqDQKOm6haUxEqDbIF7-71" target="BIqDQKOm6haUxEqDbIF7-68" edge="1">
          <mxGeometry relative="1" as="geometry">
            <mxPoint x="80" y="530" as="sourcePoint" />
            <mxPoint x="240" y="530" as="targetPoint" />
          </mxGeometry>
        </mxCell>
        <mxCell id="BIqDQKOm6haUxEqDbIF7-75" value="" style="endArrow=none;html=1;rounded=0;exitX=0.686;exitY=-0.005;exitDx=0;exitDy=0;exitPerimeter=0;entryX=0.5;entryY=1;entryDx=0;entryDy=0;labelBorderColor=none;" parent="1" source="BIqDQKOm6haUxEqDbIF7-72" target="BIqDQKOm6haUxEqDbIF7-68" edge="1">
          <mxGeometry relative="1" as="geometry">
            <mxPoint x="380" y="500" as="sourcePoint" />
            <mxPoint x="540" y="500" as="targetPoint" />
          </mxGeometry>
        </mxCell>
        <mxCell id="BIqDQKOm6haUxEqDbIF7-76" value="" style="endArrow=none;html=1;rounded=0;exitX=1;exitY=0.75;exitDx=0;exitDy=0;entryX=0;entryY=0.5;entryDx=0;entryDy=0;labelBorderColor=none;" parent="1" source="BIqDQKOm6haUxEqDbIF7-68" target="BIqDQKOm6haUxEqDbIF7-73" edge="1">
          <mxGeometry relative="1" as="geometry">
            <mxPoint x="290" y="480" as="sourcePoint" />
            <mxPoint x="450" y="480" as="targetPoint" />
          </mxGeometry>
        </mxCell>
        <mxCell id="BIqDQKOm6haUxEqDbIF7-77" value="&lt;b&gt;SUPERVISE&lt;/b&gt;" style="shape=rhombus;perimeter=rhombusPerimeter;whiteSpace=wrap;html=1;align=center;strokeColor=#FF9933;labelBorderColor=none;" parent="1" vertex="1">
          <mxGeometry x="50" y="520" width="120" height="60" as="geometry" />
        </mxCell>
        <mxCell id="BIqDQKOm6haUxEqDbIF7-78" value="" style="endArrow=none;html=1;rounded=0;entryX=0;entryY=0.5;entryDx=0;entryDy=0;exitX=0;exitY=1;exitDx=0;exitDy=0;strokeColor=#33FF33;labelBorderColor=none;" parent="1" source="BIqDQKOm6haUxEqDbIF7-68" target="BIqDQKOm6haUxEqDbIF7-77" edge="1">
          <mxGeometry relative="1" as="geometry">
            <mxPoint x="20" y="490" as="sourcePoint" />
            <mxPoint x="180" y="490" as="targetPoint" />
          </mxGeometry>
        </mxCell>
        <mxCell id="BIqDQKOm6haUxEqDbIF7-79" value="1" style="resizable=0;html=1;whiteSpace=wrap;align=right;verticalAlign=bottom;labelBorderColor=none;" parent="BIqDQKOm6haUxEqDbIF7-78" connectable="0" vertex="1">
          <mxGeometry x="1" relative="1" as="geometry" />
        </mxCell>
        <mxCell id="BIqDQKOm6haUxEqDbIF7-80" value="" style="endArrow=none;html=1;rounded=0;entryX=1;entryY=0.5;entryDx=0;entryDy=0;exitX=1;exitY=1;exitDx=0;exitDy=0;strokeColor=#33FF33;labelBorderColor=none;" parent="1" source="BIqDQKOm6haUxEqDbIF7-68" target="BIqDQKOm6haUxEqDbIF7-77" edge="1">
          <mxGeometry relative="1" as="geometry">
            <mxPoint x="310" y="510" as="sourcePoint" />
            <mxPoint x="470" y="510" as="targetPoint" />
          </mxGeometry>
        </mxCell>
        <mxCell id="BIqDQKOm6haUxEqDbIF7-81" value="N" style="resizable=0;html=1;whiteSpace=wrap;align=right;verticalAlign=bottom;labelBorderColor=none;" parent="BIqDQKOm6haUxEqDbIF7-80" connectable="0" vertex="1">
          <mxGeometry x="1" relative="1" as="geometry" />
        </mxCell>
        <mxCell id="BIqDQKOm6haUxEqDbIF7-82" value="Name" style="ellipse;whiteSpace=wrap;html=1;align=center;labelBorderColor=none;" parent="1" vertex="1">
          <mxGeometry x="250" y="360" width="100" height="40" as="geometry" />
        </mxCell>
        <mxCell id="BIqDQKOm6haUxEqDbIF7-83" value="" style="endArrow=none;html=1;rounded=0;exitX=1;exitY=0.25;exitDx=0;exitDy=0;entryX=0;entryY=0.5;entryDx=0;entryDy=0;labelBorderColor=none;" parent="1" source="BIqDQKOm6haUxEqDbIF7-68" target="BIqDQKOm6haUxEqDbIF7-82" edge="1">
          <mxGeometry relative="1" as="geometry">
            <mxPoint x="300" y="540" as="sourcePoint" />
            <mxPoint x="460" y="540" as="targetPoint" />
          </mxGeometry>
        </mxCell>
        <mxCell id="BIqDQKOm6haUxEqDbIF7-84" value="&lt;b&gt;SERVICE&lt;/b&gt;" style="whiteSpace=wrap;html=1;align=center;strokeColor=#9933FF;labelBorderColor=none;" parent="1" vertex="1">
          <mxGeometry x="520" y="115" width="100" height="40" as="geometry" />
        </mxCell>
        <mxCell id="BIqDQKOm6haUxEqDbIF7-85" value="Description" style="ellipse;whiteSpace=wrap;html=1;align=center;labelBorderColor=none;" parent="1" vertex="1">
          <mxGeometry x="460" width="100" height="40" as="geometry" />
        </mxCell>
        <mxCell id="BIqDQKOm6haUxEqDbIF7-86" value="No_of_services" style="ellipse;whiteSpace=wrap;html=1;align=center;labelBorderColor=none;" parent="1" vertex="1">
          <mxGeometry x="600" width="100" height="40" as="geometry" />
        </mxCell>
        <mxCell id="BIqDQKOm6haUxEqDbIF7-87" value="Sub_service_id" style="ellipse;whiteSpace=wrap;html=1;align=center;labelBorderColor=none;" parent="1" vertex="1">
          <mxGeometry x="690" y="45" width="100" height="40" as="geometry" />
        </mxCell>
        <mxCell id="BIqDQKOm6haUxEqDbIF7-88" value="Type" style="ellipse;whiteSpace=wrap;html=1;align=center;labelBorderColor=none;" parent="1" vertex="1">
          <mxGeometry x="610" y="50" width="60" height="35" as="geometry" />
        </mxCell>
        <mxCell id="BIqDQKOm6haUxEqDbIF7-89" value="" style="endArrow=none;html=1;rounded=0;exitX=0;exitY=0;exitDx=0;exitDy=0;entryX=0.4;entryY=1.145;entryDx=0;entryDy=0;entryPerimeter=0;labelBorderColor=none;" parent="1" source="BIqDQKOm6haUxEqDbIF7-84" target="BIqDQKOm6haUxEqDbIF7-85" edge="1">
          <mxGeometry relative="1" as="geometry">
            <mxPoint x="450" y="250" as="sourcePoint" />
            <mxPoint x="610" y="250" as="targetPoint" />
          </mxGeometry>
        </mxCell>
        <mxCell id="BIqDQKOm6haUxEqDbIF7-90" value="" style="endArrow=none;html=1;rounded=0;exitX=0.5;exitY=0;exitDx=0;exitDy=0;entryX=0;entryY=1;entryDx=0;entryDy=0;labelBorderColor=none;" parent="1" source="BIqDQKOm6haUxEqDbIF7-84" target="BIqDQKOm6haUxEqDbIF7-86" edge="1">
          <mxGeometry relative="1" as="geometry">
            <mxPoint x="480" y="269.5" as="sourcePoint" />
            <mxPoint x="640" y="269.5" as="targetPoint" />
          </mxGeometry>
        </mxCell>
        <mxCell id="BIqDQKOm6haUxEqDbIF7-91" value="" style="endArrow=none;html=1;rounded=0;exitX=0.5;exitY=1;exitDx=0;exitDy=0;entryX=0.25;entryY=0;entryDx=0;entryDy=0;labelBorderColor=none;" parent="1" source="BIqDQKOm6haUxEqDbIF7-92" target="BIqDQKOm6haUxEqDbIF7-84" edge="1">
          <mxGeometry relative="1" as="geometry">
            <mxPoint x="450" y="340" as="sourcePoint" />
            <mxPoint x="610" y="340" as="targetPoint" />
          </mxGeometry>
        </mxCell>
        <mxCell id="BIqDQKOm6haUxEqDbIF7-92" value="Id" style="ellipse;whiteSpace=wrap;html=1;align=center;fontStyle=4;labelBorderColor=none;" parent="1" vertex="1">
          <mxGeometry x="520" y="50" width="60" height="35" as="geometry" />
        </mxCell>
        <mxCell id="BIqDQKOm6haUxEqDbIF7-93" value="" style="endArrow=none;html=1;rounded=0;exitX=0.75;exitY=0;exitDx=0;exitDy=0;entryX=0;entryY=1;entryDx=0;entryDy=0;labelBorderColor=none;" parent="1" source="BIqDQKOm6haUxEqDbIF7-84" target="BIqDQKOm6haUxEqDbIF7-88" edge="1">
          <mxGeometry relative="1" as="geometry">
            <mxPoint x="460" y="260" as="sourcePoint" />
            <mxPoint x="620" y="260" as="targetPoint" />
          </mxGeometry>
        </mxCell>
        <mxCell id="BIqDQKOm6haUxEqDbIF7-94" value="" style="endArrow=none;html=1;rounded=0;exitX=0.75;exitY=0;exitDx=0;exitDy=0;entryX=0.008;entryY=0.815;entryDx=0;entryDy=0;entryPerimeter=0;labelBorderColor=none;" parent="1" source="BIqDQKOm6haUxEqDbIF7-84" target="BIqDQKOm6haUxEqDbIF7-87" edge="1">
          <mxGeometry relative="1" as="geometry">
            <mxPoint x="440" y="220" as="sourcePoint" />
            <mxPoint x="600" y="220" as="targetPoint" />
          </mxGeometry>
        </mxCell>
        <mxCell id="BIqDQKOm6haUxEqDbIF7-95" value="" style="endArrow=none;html=1;rounded=0;entryX=1;entryY=0.5;entryDx=0;entryDy=0;exitX=0;exitY=0.5;exitDx=0;exitDy=0;strokeColor=#33FF33;labelBorderColor=none;" parent="1" source="BIqDQKOm6haUxEqDbIF7-84" target="BIqDQKOm6haUxEqDbIF7-40" edge="1">
          <mxGeometry relative="1" as="geometry">
            <mxPoint x="420" y="200" as="sourcePoint" />
            <mxPoint x="580" y="200" as="targetPoint" />
          </mxGeometry>
        </mxCell>
        <mxCell id="BIqDQKOm6haUxEqDbIF7-96" value="N" style="resizable=0;html=1;whiteSpace=wrap;align=right;verticalAlign=bottom;labelBorderColor=none;" parent="BIqDQKOm6haUxEqDbIF7-95" connectable="0" vertex="1">
          <mxGeometry x="1" relative="1" as="geometry" />
        </mxCell>
        <mxCell id="BIqDQKOm6haUxEqDbIF7-97" value="Technology_id" style="ellipse;whiteSpace=wrap;html=1;align=center;labelBorderColor=none;" parent="1" vertex="1">
          <mxGeometry x="490" y="190" width="100" height="40" as="geometry" />
        </mxCell>
        <mxCell id="BIqDQKOm6haUxEqDbIF7-98" value="" style="endArrow=none;html=1;rounded=0;exitX=0.352;exitY=0.035;exitDx=0;exitDy=0;exitPerimeter=0;entryX=0.25;entryY=1;entryDx=0;entryDy=0;labelBorderColor=none;" parent="1" source="BIqDQKOm6haUxEqDbIF7-97" target="BIqDQKOm6haUxEqDbIF7-84" edge="1">
          <mxGeometry relative="1" as="geometry">
            <mxPoint x="660" y="220" as="sourcePoint" />
            <mxPoint x="820" y="220" as="targetPoint" />
          </mxGeometry>
        </mxCell>
        <mxCell id="BIqDQKOm6haUxEqDbIF7-99" value="INCLUDE" style="shape=rhombus;perimeter=rhombusPerimeter;whiteSpace=wrap;html=1;align=center;fontStyle=1;strokeColor=#FF9933;labelBorderColor=none;" parent="1" vertex="1">
          <mxGeometry x="700" y="140" width="120" height="60" as="geometry" />
        </mxCell>
        <mxCell id="BIqDQKOm6haUxEqDbIF7-100" value="" style="shape=link;html=1;rounded=0;exitX=1;exitY=0.5;exitDx=0;exitDy=0;entryX=0;entryY=0.5;entryDx=0;entryDy=0;strokeColor=#FF0000;labelBorderColor=none;" parent="1" source="BIqDQKOm6haUxEqDbIF7-84" target="BIqDQKOm6haUxEqDbIF7-99" edge="1">
          <mxGeometry relative="1" as="geometry">
            <mxPoint x="550" y="170" as="sourcePoint" />
            <mxPoint x="710" y="170" as="targetPoint" />
          </mxGeometry>
        </mxCell>
        <mxCell id="BIqDQKOm6haUxEqDbIF7-101" value="1" style="resizable=0;html=1;whiteSpace=wrap;align=right;verticalAlign=bottom;labelBorderColor=none;" parent="BIqDQKOm6haUxEqDbIF7-100" connectable="0" vertex="1">
          <mxGeometry x="1" relative="1" as="geometry" />
        </mxCell>
        <mxCell id="BIqDQKOm6haUxEqDbIF7-102" value="TECHNOLOGY" style="whiteSpace=wrap;html=1;align=center;fontStyle=1;strokeColor=#9933FF;labelBorderColor=none;" parent="1" vertex="1">
          <mxGeometry x="850" y="90" width="100" height="40" as="geometry" />
        </mxCell>
        <mxCell id="BIqDQKOm6haUxEqDbIF7-103" value="" style="endArrow=none;html=1;rounded=0;exitX=0;exitY=1;exitDx=0;exitDy=0;entryX=0.5;entryY=0;entryDx=0;entryDy=0;strokeColor=#33FF33;labelBorderColor=none;" parent="1" source="BIqDQKOm6haUxEqDbIF7-102" target="BIqDQKOm6haUxEqDbIF7-99" edge="1">
          <mxGeometry relative="1" as="geometry">
            <mxPoint x="870" y="250" as="sourcePoint" />
            <mxPoint x="1030" y="250" as="targetPoint" />
          </mxGeometry>
        </mxCell>
        <mxCell id="BIqDQKOm6haUxEqDbIF7-104" value="N" style="resizable=0;html=1;whiteSpace=wrap;align=right;verticalAlign=bottom;labelBorderColor=none;" parent="BIqDQKOm6haUxEqDbIF7-103" connectable="0" vertex="1">
          <mxGeometry x="1" relative="1" as="geometry" />
        </mxCell>
        <mxCell id="BIqDQKOm6haUxEqDbIF7-105" value="Total_technologies" style="ellipse;whiteSpace=wrap;html=1;align=center;dashed=1;labelBorderColor=none;" parent="1" vertex="1">
          <mxGeometry x="780" y="10" width="120" height="40" as="geometry" />
        </mxCell>
        <mxCell id="BIqDQKOm6haUxEqDbIF7-106" value="" style="endArrow=none;html=1;rounded=0;exitX=0.388;exitY=1.085;exitDx=0;exitDy=0;exitPerimeter=0;entryX=0;entryY=0;entryDx=0;entryDy=0;labelBorderColor=none;" parent="1" source="BIqDQKOm6haUxEqDbIF7-105" target="BIqDQKOm6haUxEqDbIF7-102" edge="1">
          <mxGeometry relative="1" as="geometry">
            <mxPoint x="990" y="200" as="sourcePoint" />
            <mxPoint x="1150" y="200" as="targetPoint" />
          </mxGeometry>
        </mxCell>
        <mxCell id="BIqDQKOm6haUxEqDbIF7-108" value="Tech_id" style="ellipse;whiteSpace=wrap;html=1;align=center;fontStyle=4;labelBorderColor=none;" parent="1" vertex="1">
          <mxGeometry x="870" y="45" width="70" height="40" as="geometry" />
        </mxCell>
        <mxCell id="BIqDQKOm6haUxEqDbIF7-109" value="" style="endArrow=none;html=1;rounded=0;exitX=0.25;exitY=0;exitDx=0;exitDy=0;entryX=0;entryY=1;entryDx=0;entryDy=0;labelBorderColor=none;" parent="1" source="BIqDQKOm6haUxEqDbIF7-102" target="BIqDQKOm6haUxEqDbIF7-108" edge="1">
          <mxGeometry relative="1" as="geometry">
            <mxPoint x="870" y="180" as="sourcePoint" />
            <mxPoint x="880" y="80" as="targetPoint" />
          </mxGeometry>
        </mxCell>
        <mxCell id="BIqDQKOm6haUxEqDbIF7-110" value="Description" style="ellipse;whiteSpace=wrap;html=1;align=center;labelBorderColor=none;" parent="1" vertex="1">
          <mxGeometry x="940" y="10" width="100" height="40" as="geometry" />
        </mxCell>
        <mxCell id="BIqDQKOm6haUxEqDbIF7-111" value="Service_id" style="ellipse;whiteSpace=wrap;html=1;align=center;labelBorderColor=none;" parent="1" vertex="1">
          <mxGeometry x="990" y="70" width="100" height="40" as="geometry" />
        </mxCell>
        <mxCell id="BIqDQKOm6haUxEqDbIF7-112" value="" style="endArrow=none;html=1;rounded=0;entryX=0;entryY=0.5;entryDx=0;entryDy=0;exitX=1;exitY=0.25;exitDx=0;exitDy=0;labelBorderColor=none;" parent="1" source="BIqDQKOm6haUxEqDbIF7-102" target="BIqDQKOm6haUxEqDbIF7-111" edge="1">
          <mxGeometry relative="1" as="geometry">
            <mxPoint x="740" y="300" as="sourcePoint" />
            <mxPoint x="900" y="300" as="targetPoint" />
          </mxGeometry>
        </mxCell>
        <mxCell id="BIqDQKOm6haUxEqDbIF7-113" value="" style="endArrow=none;html=1;rounded=0;exitX=1;exitY=0;exitDx=0;exitDy=0;entryX=0;entryY=0.5;entryDx=0;entryDy=0;labelBorderColor=none;" parent="1" source="BIqDQKOm6haUxEqDbIF7-102" target="BIqDQKOm6haUxEqDbIF7-110" edge="1">
          <mxGeometry relative="1" as="geometry">
            <mxPoint x="730" y="240" as="sourcePoint" />
            <mxPoint x="890" y="240" as="targetPoint" />
          </mxGeometry>
        </mxCell>
        <mxCell id="BIqDQKOm6haUxEqDbIF7-115" value="ENTITLE" style="shape=rhombus;double=1;perimeter=rhombusPerimeter;whiteSpace=wrap;html=1;align=center;fontStyle=1;strokeColor=#FF9933;labelBorderColor=none;" parent="1" vertex="1">
          <mxGeometry x="360" y="310" width="120" height="60" as="geometry" />
        </mxCell>
        <mxCell id="BIqDQKOm6haUxEqDbIF7-116" value="" style="endArrow=none;html=1;rounded=0;exitX=0.75;exitY=0;exitDx=0;exitDy=0;entryX=0;entryY=0.5;entryDx=0;entryDy=0;fillColor=#f8cecc;strokeColor=#33FF33;labelBorderColor=none;" parent="1" source="BIqDQKOm6haUxEqDbIF7-68" target="BIqDQKOm6haUxEqDbIF7-115" edge="1">
          <mxGeometry relative="1" as="geometry">
            <mxPoint x="380" y="450" as="sourcePoint" />
            <mxPoint x="540" y="450" as="targetPoint" />
            <Array as="points">
              <mxPoint x="280" y="350" />
            </Array>
          </mxGeometry>
        </mxCell>
        <mxCell id="BIqDQKOm6haUxEqDbIF7-117" value="1" style="resizable=0;html=1;whiteSpace=wrap;align=right;verticalAlign=bottom;labelBorderColor=none;" parent="BIqDQKOm6haUxEqDbIF7-116" connectable="0" vertex="1">
          <mxGeometry x="1" relative="1" as="geometry" />
        </mxCell>
        <mxCell id="BIqDQKOm6haUxEqDbIF7-118" value="" style="endArrow=none;html=1;rounded=0;exitX=0.628;exitY=-0.015;exitDx=0;exitDy=0;exitPerimeter=0;entryX=0.373;entryY=0.823;entryDx=0;entryDy=0;entryPerimeter=0;fillColor=#f8cecc;strokeColor=#33FF33;labelBorderColor=none;" parent="1" source="BIqDQKOm6haUxEqDbIF7-68" target="BIqDQKOm6haUxEqDbIF7-40" edge="1">
          <mxGeometry relative="1" as="geometry">
            <mxPoint x="250" y="320" as="sourcePoint" />
            <mxPoint x="410" y="320" as="targetPoint" />
            <Array as="points">
              <mxPoint x="320" y="280" />
            </Array>
          </mxGeometry>
        </mxCell>
        <mxCell id="BIqDQKOm6haUxEqDbIF7-119" value="1" style="resizable=0;html=1;whiteSpace=wrap;align=right;verticalAlign=bottom;labelBorderColor=none;" parent="BIqDQKOm6haUxEqDbIF7-118" connectable="0" vertex="1">
          <mxGeometry x="1" relative="1" as="geometry" />
        </mxCell>
        <mxCell id="BIqDQKOm6haUxEqDbIF7-120" value="" style="endArrow=none;html=1;rounded=0;strokeColor=#000000;align=center;verticalAlign=middle;fontFamily=Helvetica;fontSize=11;fontColor=default;labelBackgroundColor=default;exitX=0.5;exitY=1;exitDx=0;exitDy=0;entryX=0.316;entryY=0.015;entryDx=0;entryDy=0;entryPerimeter=0;labelBorderColor=none;" parent="1" source="BIqDQKOm6haUxEqDbIF7-115" target="BIqDQKOm6haUxEqDbIF7-123" edge="1">
          <mxGeometry relative="1" as="geometry">
            <mxPoint x="480" y="450" as="sourcePoint" />
            <mxPoint x="470" y="410" as="targetPoint" />
          </mxGeometry>
        </mxCell>
        <mxCell id="BIqDQKOm6haUxEqDbIF7-123" value="Title" style="ellipse;whiteSpace=wrap;html=1;align=center;strokeColor=default;verticalAlign=middle;fontFamily=Helvetica;fontSize=11;fontColor=default;labelBackgroundColor=default;fillColor=default;labelBorderColor=none;" parent="1" vertex="1">
          <mxGeometry x="420" y="390" width="100" height="40" as="geometry" />
        </mxCell>
        <mxCell id="BIqDQKOm6haUxEqDbIF7-124" value="" style="endArrow=none;html=1;rounded=0;strokeColor=#33FF33;align=center;verticalAlign=middle;fontFamily=Helvetica;fontSize=11;fontColor=default;labelBackgroundColor=default;entryX=0.5;entryY=0;entryDx=0;entryDy=0;exitX=0.652;exitY=0.99;exitDx=0;exitDy=0;exitPerimeter=0;labelBorderColor=none;" parent="1" source="BIqDQKOm6haUxEqDbIF7-84" target="BIqDQKOm6haUxEqDbIF7-115" edge="1">
          <mxGeometry relative="1" as="geometry">
            <mxPoint x="550" y="380" as="sourcePoint" />
            <mxPoint x="710" y="380" as="targetPoint" />
            <Array as="points">
              <mxPoint x="610" y="230" />
            </Array>
          </mxGeometry>
        </mxCell>
        <mxCell id="BIqDQKOm6haUxEqDbIF7-125" value="1" style="resizable=0;html=1;whiteSpace=wrap;align=right;verticalAlign=bottom;strokeColor=default;fontFamily=Helvetica;fontSize=11;fontColor=default;labelBackgroundColor=default;fillColor=default;labelBorderColor=none;" parent="BIqDQKOm6haUxEqDbIF7-124" connectable="0" vertex="1">
          <mxGeometry x="1" relative="1" as="geometry" />
        </mxCell>
        <mxCell id="BIqDQKOm6haUxEqDbIF7-127" value="" style="shape=link;html=1;rounded=0;strokeColor=#FF0000;align=center;verticalAlign=middle;fontFamily=Helvetica;fontSize=11;fontColor=default;labelBackgroundColor=default;endArrow=none;entryX=1;entryY=0.5;entryDx=0;entryDy=0;exitX=0;exitY=0.5;exitDx=0;exitDy=0;labelBorderColor=none;" parent="1" source="BIqDQKOm6haUxEqDbIF7-129" target="BIqDQKOm6haUxEqDbIF7-115" edge="1">
          <mxGeometry relative="1" as="geometry">
            <mxPoint x="570" y="330" as="sourcePoint" />
            <mxPoint x="640" y="460" as="targetPoint" />
          </mxGeometry>
        </mxCell>
        <mxCell id="BIqDQKOm6haUxEqDbIF7-128" value="1" style="resizable=0;html=1;whiteSpace=wrap;align=right;verticalAlign=bottom;strokeColor=default;fontFamily=Helvetica;fontSize=11;fontColor=default;labelBackgroundColor=default;fillColor=default;labelBorderColor=none;" parent="BIqDQKOm6haUxEqDbIF7-127" connectable="0" vertex="1">
          <mxGeometry x="1" relative="1" as="geometry" />
        </mxCell>
        <mxCell id="BIqDQKOm6haUxEqDbIF7-129" value="SPECIAL_PROJECT" style="shape=ext;margin=3;double=1;whiteSpace=wrap;html=1;align=center;strokeColor=#9933FF;verticalAlign=middle;fontFamily=Helvetica;fontSize=11;fontColor=default;labelBackgroundColor=default;fillColor=default;fontStyle=1;labelBorderColor=none;" parent="1" vertex="1">
          <mxGeometry x="590" y="310" width="130" height="40" as="geometry" />
        </mxCell>
        <mxCell id="BIqDQKOm6haUxEqDbIF7-130" value="Sub_service_id" style="ellipse;whiteSpace=wrap;html=1;align=center;strokeColor=default;verticalAlign=middle;fontFamily=Helvetica;fontSize=11;fontColor=default;labelBackgroundColor=default;fillColor=default;labelBorderColor=none;" parent="1" vertex="1">
          <mxGeometry x="590" y="255" width="100" height="40" as="geometry" />
        </mxCell>
        <mxCell id="BIqDQKOm6haUxEqDbIF7-134" value="Order_id" style="ellipse;whiteSpace=wrap;html=1;align=center;strokeColor=default;verticalAlign=middle;fontFamily=Helvetica;fontSize=11;fontColor=default;labelBackgroundColor=default;fillColor=default;labelBorderColor=none;" parent="1" vertex="1">
          <mxGeometry x="690" y="370" width="100" height="40" as="geometry" />
        </mxCell>
        <mxCell id="BIqDQKOm6haUxEqDbIF7-135" value="Technology_id" style="ellipse;whiteSpace=wrap;html=1;align=center;strokeColor=default;verticalAlign=middle;fontFamily=Helvetica;fontSize=11;fontColor=default;labelBackgroundColor=default;fillColor=default;labelBorderColor=none;" parent="1" vertex="1">
          <mxGeometry x="530" y="440" width="100" height="40" as="geometry" />
        </mxCell>
        <mxCell id="BIqDQKOm6haUxEqDbIF7-136" value="" style="endArrow=none;html=1;rounded=0;strokeColor=default;align=center;verticalAlign=middle;fontFamily=Helvetica;fontSize=11;fontColor=default;labelBackgroundColor=default;exitX=0;exitY=1;exitDx=0;exitDy=0;entryX=0.424;entryY=0.165;entryDx=0;entryDy=0;entryPerimeter=0;labelBorderColor=none;" parent="1" source="BIqDQKOm6haUxEqDbIF7-129" target="BIqDQKOm6haUxEqDbIF7-135" edge="1">
          <mxGeometry relative="1" as="geometry">
            <mxPoint x="450" y="540" as="sourcePoint" />
            <mxPoint x="610" y="540" as="targetPoint" />
          </mxGeometry>
        </mxCell>
        <mxCell id="BIqDQKOm6haUxEqDbIF7-137" value="" style="endArrow=none;html=1;rounded=0;strokeColor=default;align=center;verticalAlign=middle;fontFamily=Helvetica;fontSize=11;fontColor=default;labelBackgroundColor=default;exitX=0.308;exitY=0.935;exitDx=0;exitDy=0;entryX=0.421;entryY=0.041;entryDx=0;entryDy=0;entryPerimeter=0;exitPerimeter=0;labelBorderColor=none;" parent="1" source="BIqDQKOm6haUxEqDbIF7-129" target="BIqDQKOm6haUxEqDbIF7-190" edge="1">
          <mxGeometry relative="1" as="geometry">
            <mxPoint x="600" y="360" as="sourcePoint" />
            <mxPoint x="638.8" y="389" as="targetPoint" />
          </mxGeometry>
        </mxCell>
        <mxCell id="BIqDQKOm6haUxEqDbIF7-138" value="" style="endArrow=none;html=1;rounded=0;strokeColor=default;align=center;verticalAlign=middle;fontFamily=Helvetica;fontSize=11;fontColor=default;labelBackgroundColor=default;exitX=0.603;exitY=0.995;exitDx=0;exitDy=0;entryX=0;entryY=0;entryDx=0;entryDy=0;exitPerimeter=0;labelBorderColor=none;" parent="1" source="BIqDQKOm6haUxEqDbIF7-129" target="BIqDQKOm6haUxEqDbIF7-134" edge="1">
          <mxGeometry relative="1" as="geometry">
            <mxPoint x="610" y="370" as="sourcePoint" />
            <mxPoint x="592" y="487" as="targetPoint" />
          </mxGeometry>
        </mxCell>
        <mxCell id="BIqDQKOm6haUxEqDbIF7-141" value="" style="endArrow=none;html=1;rounded=0;strokeColor=#33FF33;align=center;verticalAlign=middle;fontFamily=Helvetica;fontSize=11;fontColor=default;labelBackgroundColor=default;entryX=1;entryY=0.5;entryDx=0;entryDy=0;exitX=0;exitY=0;exitDx=0;exitDy=0;labelBorderColor=none;" parent="1" source="BIqDQKOm6haUxEqDbIF7-129" target="BIqDQKOm6haUxEqDbIF7-45" edge="1">
          <mxGeometry relative="1" as="geometry">
            <mxPoint x="380" y="360" as="sourcePoint" />
            <mxPoint x="540" y="360" as="targetPoint" />
          </mxGeometry>
        </mxCell>
        <mxCell id="BIqDQKOm6haUxEqDbIF7-142" value="N" style="resizable=0;html=1;whiteSpace=wrap;align=right;verticalAlign=bottom;strokeColor=default;fontFamily=Helvetica;fontSize=11;fontColor=default;labelBackgroundColor=default;fillColor=default;labelBorderColor=none;" parent="BIqDQKOm6haUxEqDbIF7-141" connectable="0" vertex="1">
          <mxGeometry x="1" relative="1" as="geometry" />
        </mxCell>
        <mxCell id="BIqDQKOm6haUxEqDbIF7-143" value="SUBSERVICE" style="shape=ext;margin=3;double=1;whiteSpace=wrap;html=1;align=center;strokeColor=#9933FF;verticalAlign=middle;fontFamily=Helvetica;fontSize=11;fontColor=default;labelBackgroundColor=default;fillColor=default;fontStyle=1;labelBorderColor=none;" parent="1" vertex="1">
          <mxGeometry x="970" y="190" width="100" height="40" as="geometry" />
        </mxCell>
        <mxCell id="BIqDQKOm6haUxEqDbIF7-144" value="&lt;span style=&quot;border-bottom: 1px dotted&quot;&gt;Subservice_id&lt;/span&gt;" style="ellipse;whiteSpace=wrap;html=1;align=center;strokeColor=default;verticalAlign=middle;fontFamily=Helvetica;fontSize=11;fontColor=default;labelBackgroundColor=default;fillColor=default;labelBorderColor=none;" parent="1" vertex="1">
          <mxGeometry x="980" y="130" width="100" height="40" as="geometry" />
        </mxCell>
        <mxCell id="BIqDQKOm6haUxEqDbIF7-145" value="Service_id" style="ellipse;whiteSpace=wrap;html=1;align=center;strokeColor=default;verticalAlign=middle;fontFamily=Helvetica;fontSize=11;fontColor=default;labelBackgroundColor=default;fillColor=default;labelBorderColor=none;" parent="1" vertex="1">
          <mxGeometry x="1000" y="280" width="100" height="40" as="geometry" />
        </mxCell>
        <mxCell id="BIqDQKOm6haUxEqDbIF7-146" value="" style="endArrow=none;html=1;rounded=0;strokeColor=default;align=center;verticalAlign=middle;fontFamily=Helvetica;fontSize=11;fontColor=default;labelBackgroundColor=default;exitX=0.404;exitY=1.035;exitDx=0;exitDy=0;exitPerimeter=0;entryX=0.376;entryY=0.015;entryDx=0;entryDy=0;entryPerimeter=0;labelBorderColor=none;" parent="1" source="BIqDQKOm6haUxEqDbIF7-144" target="BIqDQKOm6haUxEqDbIF7-143" edge="1">
          <mxGeometry relative="1" as="geometry">
            <mxPoint x="880" y="270" as="sourcePoint" />
            <mxPoint x="1040" y="270" as="targetPoint" />
          </mxGeometry>
        </mxCell>
        <mxCell id="BIqDQKOm6haUxEqDbIF7-147" value="" style="endArrow=none;html=1;rounded=0;strokeColor=default;align=center;verticalAlign=middle;fontFamily=Helvetica;fontSize=11;fontColor=default;labelBackgroundColor=default;entryX=0.5;entryY=1;entryDx=0;entryDy=0;exitX=0.308;exitY=0.125;exitDx=0;exitDy=0;exitPerimeter=0;labelBorderColor=none;" parent="1" source="BIqDQKOm6haUxEqDbIF7-145" target="BIqDQKOm6haUxEqDbIF7-143" edge="1">
          <mxGeometry relative="1" as="geometry">
            <mxPoint x="790" y="240" as="sourcePoint" />
            <mxPoint x="950" y="240" as="targetPoint" />
          </mxGeometry>
        </mxCell>
        <mxCell id="BIqDQKOm6haUxEqDbIF7-148" value="PROVIDE" style="shape=rhombus;double=1;perimeter=rhombusPerimeter;whiteSpace=wrap;html=1;align=center;strokeColor=#FF9933;verticalAlign=middle;fontFamily=Helvetica;fontSize=11;fontColor=default;labelBackgroundColor=default;fillColor=default;fontStyle=1;labelBorderColor=none;" parent="1" vertex="1">
          <mxGeometry x="830" y="320" width="120" height="60" as="geometry" />
        </mxCell>
        <mxCell id="BIqDQKOm6haUxEqDbIF7-149" value="" style="shape=link;html=1;rounded=0;strokeColor=#FF0000;align=center;verticalAlign=middle;fontFamily=Helvetica;fontSize=11;fontColor=default;labelBackgroundColor=default;endArrow=none;entryX=0.5;entryY=0;entryDx=0;entryDy=0;exitX=0;exitY=1;exitDx=0;exitDy=0;labelBorderColor=none;" parent="1" source="BIqDQKOm6haUxEqDbIF7-143" target="BIqDQKOm6haUxEqDbIF7-148" edge="1">
          <mxGeometry relative="1" as="geometry">
            <mxPoint x="770" y="260" as="sourcePoint" />
            <mxPoint x="930" y="260" as="targetPoint" />
          </mxGeometry>
        </mxCell>
        <mxCell id="BIqDQKOm6haUxEqDbIF7-150" value="N" style="resizable=0;html=1;whiteSpace=wrap;align=right;verticalAlign=bottom;strokeColor=default;fontFamily=Helvetica;fontSize=11;fontColor=default;labelBackgroundColor=default;fillColor=default;labelBorderColor=none;" parent="BIqDQKOm6haUxEqDbIF7-149" connectable="0" vertex="1">
          <mxGeometry x="1" relative="1" as="geometry" />
        </mxCell>
        <mxCell id="BIqDQKOm6haUxEqDbIF7-152" value="" style="endArrow=none;html=1;rounded=0;strokeColor=#33FF33;align=center;verticalAlign=middle;fontFamily=Helvetica;fontSize=11;fontColor=default;labelBackgroundColor=default;entryX=0;entryY=0;entryDx=0;entryDy=0;exitX=1;exitY=1;exitDx=0;exitDy=0;labelBorderColor=none;" parent="1" source="BIqDQKOm6haUxEqDbIF7-84" target="BIqDQKOm6haUxEqDbIF7-148" edge="1">
          <mxGeometry relative="1" as="geometry">
            <mxPoint x="670" y="280" as="sourcePoint" />
            <mxPoint x="830" y="280" as="targetPoint" />
          </mxGeometry>
        </mxCell>
        <mxCell id="BIqDQKOm6haUxEqDbIF7-153" value="1" style="resizable=0;html=1;whiteSpace=wrap;align=right;verticalAlign=bottom;strokeColor=default;fontFamily=Helvetica;fontSize=11;fontColor=default;labelBackgroundColor=default;fillColor=default;labelBorderColor=none;" parent="BIqDQKOm6haUxEqDbIF7-152" connectable="0" vertex="1">
          <mxGeometry x="1" relative="1" as="geometry" />
        </mxCell>
        <mxCell id="BIqDQKOm6haUxEqDbIF7-154" value="HANDLE" style="shape=rhombus;perimeter=rhombusPerimeter;whiteSpace=wrap;html=1;align=center;verticalAlign=middle;fontFamily=Helvetica;fontSize=11;labelBackgroundColor=default;fontStyle=1;labelBorderColor=none;" parent="1" vertex="1">
          <mxGeometry x="780" y="430" width="120" height="60" as="geometry" />
        </mxCell>
        <mxCell id="BIqDQKOm6haUxEqDbIF7-157" value="" style="endArrow=none;html=1;rounded=0;strokeColor=#33FF33;align=center;verticalAlign=middle;fontFamily=Helvetica;fontSize=11;fontColor=default;labelBackgroundColor=default;exitX=0.876;exitY=1.01;exitDx=0;exitDy=0;exitPerimeter=0;entryX=0.5;entryY=0;entryDx=0;entryDy=0;labelBorderColor=none;" parent="1" source="BIqDQKOm6haUxEqDbIF7-84" target="BIqDQKOm6haUxEqDbIF7-154" edge="1">
          <mxGeometry relative="1" as="geometry">
            <mxPoint x="700" y="410" as="sourcePoint" />
            <mxPoint x="850" y="440" as="targetPoint" />
          </mxGeometry>
        </mxCell>
        <mxCell id="BIqDQKOm6haUxEqDbIF7-158" value="N" style="resizable=0;html=1;whiteSpace=wrap;align=right;verticalAlign=bottom;strokeColor=default;fontFamily=Helvetica;fontSize=11;fontColor=default;labelBackgroundColor=default;fillColor=default;labelBorderColor=none;" parent="BIqDQKOm6haUxEqDbIF7-157" connectable="0" vertex="1">
          <mxGeometry x="1" relative="1" as="geometry" />
        </mxCell>
        <mxCell id="BIqDQKOm6haUxEqDbIF7-159" style="edgeStyle=none;shape=connector;rounded=0;orthogonalLoop=1;jettySize=auto;html=1;exitX=0;exitY=0.5;exitDx=0;exitDy=0;entryX=0;entryY=0;entryDx=0;entryDy=0;strokeColor=default;align=center;verticalAlign=middle;fontFamily=Helvetica;fontSize=11;fontColor=default;labelBackgroundColor=default;endArrow=none;labelBorderColor=none;" parent="1" source="BIqDQKOm6haUxEqDbIF7-154" target="BIqDQKOm6haUxEqDbIF7-154" edge="1">
          <mxGeometry relative="1" as="geometry" />
        </mxCell>
        <mxCell id="BIqDQKOm6haUxEqDbIF7-160" value="" style="endArrow=none;html=1;rounded=0;strokeColor=#33FF33;align=center;verticalAlign=middle;fontFamily=Helvetica;fontSize=11;fontColor=default;labelBackgroundColor=default;exitX=1;exitY=0.75;exitDx=0;exitDy=0;entryX=0;entryY=0;entryDx=0;entryDy=0;labelBorderColor=none;" parent="1" source="BIqDQKOm6haUxEqDbIF7-129" target="BIqDQKOm6haUxEqDbIF7-154" edge="1">
          <mxGeometry relative="1" as="geometry">
            <mxPoint x="870" y="410" as="sourcePoint" />
            <mxPoint x="1030" y="410" as="targetPoint" />
            <Array as="points">
              <mxPoint x="810" y="360" />
            </Array>
          </mxGeometry>
        </mxCell>
        <mxCell id="BIqDQKOm6haUxEqDbIF7-161" value="N" style="resizable=0;html=1;whiteSpace=wrap;align=right;verticalAlign=bottom;strokeColor=default;fontFamily=Helvetica;fontSize=11;fontColor=default;labelBackgroundColor=default;fillColor=default;labelBorderColor=none;" parent="BIqDQKOm6haUxEqDbIF7-160" connectable="0" vertex="1">
          <mxGeometry x="1" relative="1" as="geometry" />
        </mxCell>
        <mxCell id="BIqDQKOm6haUxEqDbIF7-162" value="" style="endArrow=none;html=1;rounded=0;strokeColor=#33FF33;align=center;verticalAlign=middle;fontFamily=Helvetica;fontSize=11;fontColor=default;labelBackgroundColor=default;exitX=0.75;exitY=1;exitDx=0;exitDy=0;entryX=1;entryY=0.5;entryDx=0;entryDy=0;labelBorderColor=none;" parent="1" source="BIqDQKOm6haUxEqDbIF7-102" target="BIqDQKOm6haUxEqDbIF7-154" edge="1">
          <mxGeometry relative="1" as="geometry">
            <mxPoint x="980" y="420" as="sourcePoint" />
            <mxPoint x="1140" y="420" as="targetPoint" />
            <Array as="points">
              <mxPoint x="980" y="410" />
            </Array>
          </mxGeometry>
        </mxCell>
        <mxCell id="BIqDQKOm6haUxEqDbIF7-163" value="N" style="resizable=0;html=1;whiteSpace=wrap;align=right;verticalAlign=bottom;strokeColor=default;fontFamily=Helvetica;fontSize=11;fontColor=default;labelBackgroundColor=default;fillColor=default;labelBorderColor=none;" parent="BIqDQKOm6haUxEqDbIF7-162" connectable="0" vertex="1">
          <mxGeometry x="1" relative="1" as="geometry" />
        </mxCell>
        <mxCell id="BIqDQKOm6haUxEqDbIF7-164" value="ADMIN" style="whiteSpace=wrap;html=1;align=center;strokeColor=#9933FF;verticalAlign=middle;fontFamily=Helvetica;fontSize=11;fontColor=default;labelBackgroundColor=default;fillColor=default;fontStyle=1;labelBorderColor=none;" parent="1" vertex="1">
          <mxGeometry x="730" y="560" width="100" height="40" as="geometry" />
        </mxCell>
        <mxCell id="BIqDQKOm6haUxEqDbIF7-165" value="" style="endArrow=none;html=1;rounded=0;strokeColor=#33FF33;align=center;verticalAlign=middle;fontFamily=Helvetica;fontSize=11;fontColor=default;labelBackgroundColor=default;entryX=0.5;entryY=1;entryDx=0;entryDy=0;exitX=0.6;exitY=-0.075;exitDx=0;exitDy=0;exitPerimeter=0;labelBorderColor=none;" parent="1" source="BIqDQKOm6haUxEqDbIF7-164" target="BIqDQKOm6haUxEqDbIF7-154" edge="1">
          <mxGeometry relative="1" as="geometry">
            <mxPoint x="650" y="530" as="sourcePoint" />
            <mxPoint x="810" y="530" as="targetPoint" />
          </mxGeometry>
        </mxCell>
        <mxCell id="BIqDQKOm6haUxEqDbIF7-166" value="1" style="resizable=0;html=1;whiteSpace=wrap;align=right;verticalAlign=bottom;strokeColor=default;fontFamily=Helvetica;fontSize=11;fontColor=default;labelBackgroundColor=default;fillColor=default;labelBorderColor=none;" parent="BIqDQKOm6haUxEqDbIF7-165" connectable="0" vertex="1">
          <mxGeometry x="1" relative="1" as="geometry" />
        </mxCell>
        <mxCell id="BIqDQKOm6haUxEqDbIF7-167" value="Name" style="ellipse;whiteSpace=wrap;html=1;align=center;strokeColor=default;verticalAlign=middle;fontFamily=Helvetica;fontSize=11;fontColor=default;labelBackgroundColor=default;fillColor=default;labelBorderColor=none;" parent="1" vertex="1">
          <mxGeometry x="880" y="540" width="100" height="40" as="geometry" />
        </mxCell>
        <mxCell id="BIqDQKOm6haUxEqDbIF7-168" value="Password" style="ellipse;whiteSpace=wrap;html=1;align=center;strokeColor=default;verticalAlign=middle;fontFamily=Helvetica;fontSize=11;fontColor=default;labelBackgroundColor=default;fillColor=default;labelBorderColor=none;" parent="1" vertex="1">
          <mxGeometry x="890" y="600" width="100" height="40" as="geometry" />
        </mxCell>
        <mxCell id="BIqDQKOm6haUxEqDbIF7-169" value="Id" style="ellipse;whiteSpace=wrap;html=1;align=center;fontStyle=4;strokeColor=default;verticalAlign=middle;fontFamily=Helvetica;fontSize=11;fontColor=default;labelBackgroundColor=default;fillColor=default;labelBorderColor=none;" parent="1" vertex="1">
          <mxGeometry x="660" y="630" width="100" height="40" as="geometry" />
        </mxCell>
        <mxCell id="BIqDQKOm6haUxEqDbIF7-170" value="No_of_admins" style="ellipse;whiteSpace=wrap;html=1;align=center;dashed=1;strokeColor=default;verticalAlign=middle;fontFamily=Helvetica;fontSize=11;fontColor=default;labelBackgroundColor=default;fillColor=default;labelBorderColor=none;" parent="1" vertex="1">
          <mxGeometry x="780" y="630" width="100" height="40" as="geometry" />
        </mxCell>
        <mxCell id="BIqDQKOm6haUxEqDbIF7-171" value="" style="endArrow=none;html=1;rounded=0;strokeColor=default;align=center;verticalAlign=middle;fontFamily=Helvetica;fontSize=11;fontColor=default;labelBackgroundColor=default;entryX=0;entryY=0.5;entryDx=0;entryDy=0;exitX=1;exitY=0.5;exitDx=0;exitDy=0;labelBorderColor=none;" parent="1" source="BIqDQKOm6haUxEqDbIF7-164" target="BIqDQKOm6haUxEqDbIF7-167" edge="1">
          <mxGeometry relative="1" as="geometry">
            <mxPoint x="400" y="570" as="sourcePoint" />
            <mxPoint x="560" y="570" as="targetPoint" />
          </mxGeometry>
        </mxCell>
        <mxCell id="BIqDQKOm6haUxEqDbIF7-172" value="" style="endArrow=none;html=1;rounded=0;strokeColor=default;align=center;verticalAlign=middle;fontFamily=Helvetica;fontSize=11;fontColor=default;labelBackgroundColor=default;entryX=0;entryY=0;entryDx=0;entryDy=0;exitX=1;exitY=1;exitDx=0;exitDy=0;labelBorderColor=none;" parent="1" source="BIqDQKOm6haUxEqDbIF7-164" target="BIqDQKOm6haUxEqDbIF7-168" edge="1">
          <mxGeometry relative="1" as="geometry">
            <mxPoint x="410" y="580" as="sourcePoint" />
            <mxPoint x="740" y="620" as="targetPoint" />
          </mxGeometry>
        </mxCell>
        <mxCell id="BIqDQKOm6haUxEqDbIF7-173" value="" style="endArrow=none;html=1;rounded=0;strokeColor=default;align=center;verticalAlign=middle;fontFamily=Helvetica;fontSize=11;fontColor=default;labelBackgroundColor=default;entryX=0.356;entryY=-0.045;entryDx=0;entryDy=0;entryPerimeter=0;exitX=0.5;exitY=1;exitDx=0;exitDy=0;labelBorderColor=none;" parent="1" source="BIqDQKOm6haUxEqDbIF7-164" target="BIqDQKOm6haUxEqDbIF7-170" edge="1">
          <mxGeometry relative="1" as="geometry">
            <mxPoint x="420" y="590" as="sourcePoint" />
            <mxPoint x="580" y="590" as="targetPoint" />
          </mxGeometry>
        </mxCell>
        <mxCell id="BIqDQKOm6haUxEqDbIF7-174" value="" style="endArrow=none;html=1;rounded=0;strokeColor=default;align=center;verticalAlign=middle;fontFamily=Helvetica;fontSize=11;fontColor=default;labelBackgroundColor=default;entryX=1;entryY=0;entryDx=0;entryDy=0;exitX=0.25;exitY=1;exitDx=0;exitDy=0;labelBorderColor=none;" parent="1" source="BIqDQKOm6haUxEqDbIF7-164" target="BIqDQKOm6haUxEqDbIF7-169" edge="1">
          <mxGeometry relative="1" as="geometry">
            <mxPoint x="430" y="600" as="sourcePoint" />
            <mxPoint x="590" y="600" as="targetPoint" />
          </mxGeometry>
        </mxCell>
        <mxCell id="BIqDQKOm6haUxEqDbIF7-175" value="DESIGNATE" style="shape=rhombus;perimeter=rhombusPerimeter;whiteSpace=wrap;html=1;align=center;strokeColor=#FF9933;verticalAlign=middle;fontFamily=Helvetica;fontSize=11;fontColor=default;labelBackgroundColor=default;fillColor=default;fontStyle=1;labelBorderColor=none;" parent="1" vertex="1">
          <mxGeometry x="350" y="480" width="120" height="80" as="geometry" />
        </mxCell>
        <mxCell id="BIqDQKOm6haUxEqDbIF7-176" value="" style="endArrow=none;html=1;rounded=0;strokeColor=#33FF33;align=center;verticalAlign=middle;fontFamily=Helvetica;fontSize=11;fontColor=default;labelBackgroundColor=default;entryX=1;entryY=0.5;entryDx=0;entryDy=0;exitX=0;exitY=0.5;exitDx=0;exitDy=0;labelBorderColor=none;" parent="1" source="BIqDQKOm6haUxEqDbIF7-164" target="BIqDQKOm6haUxEqDbIF7-175" edge="1">
          <mxGeometry relative="1" as="geometry">
            <mxPoint x="490" y="670" as="sourcePoint" />
            <mxPoint x="650" y="670" as="targetPoint" />
          </mxGeometry>
        </mxCell>
        <mxCell id="BIqDQKOm6haUxEqDbIF7-177" value="1" style="resizable=0;html=1;whiteSpace=wrap;align=right;verticalAlign=bottom;strokeColor=default;fontFamily=Helvetica;fontSize=11;fontColor=default;labelBackgroundColor=default;fillColor=default;labelBorderColor=none;" parent="BIqDQKOm6haUxEqDbIF7-176" connectable="0" vertex="1">
          <mxGeometry x="1" relative="1" as="geometry" />
        </mxCell>
        <mxCell id="BIqDQKOm6haUxEqDbIF7-178" value="Key" style="ellipse;whiteSpace=wrap;html=1;align=center;strokeColor=default;verticalAlign=middle;fontFamily=Helvetica;fontSize=11;fontColor=default;labelBackgroundColor=default;fillColor=default;labelBorderColor=none;" parent="1" vertex="1">
          <mxGeometry x="270" y="540" width="100" height="40" as="geometry" />
        </mxCell>
        <mxCell id="BIqDQKOm6haUxEqDbIF7-179" value="Lookup_id" style="ellipse;whiteSpace=wrap;html=1;align=center;fontStyle=4;strokeColor=default;verticalAlign=middle;fontFamily=Helvetica;fontSize=11;fontColor=default;labelBackgroundColor=default;fillColor=default;labelBorderColor=none;" parent="1" vertex="1">
          <mxGeometry x="380" y="590" width="100" height="40" as="geometry" />
        </mxCell>
        <mxCell id="BIqDQKOm6haUxEqDbIF7-180" value="Value" style="ellipse;whiteSpace=wrap;html=1;align=center;strokeColor=default;verticalAlign=middle;fontFamily=Helvetica;fontSize=11;fontColor=default;labelBackgroundColor=default;fillColor=default;labelBorderColor=none;" parent="1" vertex="1">
          <mxGeometry x="450" y="550" width="100" height="40" as="geometry" />
        </mxCell>
        <mxCell id="BIqDQKOm6haUxEqDbIF7-181" value="" style="endArrow=none;html=1;rounded=0;strokeColor=default;align=center;verticalAlign=middle;fontFamily=Helvetica;fontSize=11;fontColor=default;labelBackgroundColor=default;entryX=0.604;entryY=0.035;entryDx=0;entryDy=0;entryPerimeter=0;exitX=0;exitY=1;exitDx=0;exitDy=0;labelBorderColor=none;" parent="1" source="BIqDQKOm6haUxEqDbIF7-175" target="BIqDQKOm6haUxEqDbIF7-178" edge="1">
          <mxGeometry relative="1" as="geometry">
            <mxPoint x="210" y="619.5" as="sourcePoint" />
            <mxPoint x="370" y="619.5" as="targetPoint" />
          </mxGeometry>
        </mxCell>
        <mxCell id="BIqDQKOm6haUxEqDbIF7-182" value="" style="endArrow=none;html=1;rounded=0;strokeColor=default;align=center;verticalAlign=middle;fontFamily=Helvetica;fontSize=11;fontColor=default;labelBackgroundColor=default;entryX=0.236;entryY=0.105;entryDx=0;entryDy=0;entryPerimeter=0;exitX=0.593;exitY=0.937;exitDx=0;exitDy=0;exitPerimeter=0;labelBorderColor=none;" parent="1" source="BIqDQKOm6haUxEqDbIF7-175" target="BIqDQKOm6haUxEqDbIF7-179" edge="1">
          <mxGeometry relative="1" as="geometry">
            <mxPoint x="450" y="620" as="sourcePoint" />
            <mxPoint x="610" y="620" as="targetPoint" />
          </mxGeometry>
        </mxCell>
        <mxCell id="BIqDQKOm6haUxEqDbIF7-183" value="" style="endArrow=none;html=1;rounded=0;strokeColor=default;align=center;verticalAlign=middle;fontFamily=Helvetica;fontSize=11;fontColor=default;labelBackgroundColor=default;entryX=0.5;entryY=0;entryDx=0;entryDy=0;exitX=1;exitY=1;exitDx=0;exitDy=0;labelBorderColor=none;" parent="1" source="BIqDQKOm6haUxEqDbIF7-175" target="BIqDQKOm6haUxEqDbIF7-180" edge="1">
          <mxGeometry relative="1" as="geometry">
            <mxPoint x="450" y="630" as="sourcePoint" />
            <mxPoint x="620" y="630" as="targetPoint" />
          </mxGeometry>
        </mxCell>
        <mxCell id="BIqDQKOm6haUxEqDbIF7-184" value="" style="endArrow=none;html=1;rounded=0;strokeColor=#33FF33;align=center;verticalAlign=middle;fontFamily=Helvetica;fontSize=11;fontColor=default;labelBackgroundColor=default;entryX=0.5;entryY=0;entryDx=0;entryDy=0;exitX=1;exitY=1;exitDx=0;exitDy=0;labelBorderColor=none;" parent="1" source="BIqDQKOm6haUxEqDbIF7-68" target="BIqDQKOm6haUxEqDbIF7-175" edge="1">
          <mxGeometry relative="1" as="geometry">
            <mxPoint x="230" y="510" as="sourcePoint" />
            <mxPoint x="390" y="510" as="targetPoint" />
            <Array as="points">
              <mxPoint x="270" y="480" />
            </Array>
          </mxGeometry>
        </mxCell>
        <mxCell id="BIqDQKOm6haUxEqDbIF7-185" value="N" style="resizable=0;html=1;whiteSpace=wrap;align=right;verticalAlign=bottom;strokeColor=default;fontFamily=Helvetica;fontSize=11;fontColor=default;labelBackgroundColor=default;fillColor=default;labelBorderColor=none;" parent="BIqDQKOm6haUxEqDbIF7-184" connectable="0" vertex="1">
          <mxGeometry x="1" relative="1" as="geometry" />
        </mxCell>
        <mxCell id="BIqDQKOm6haUxEqDbIF7-186" value="" style="endArrow=none;html=1;rounded=0;strokeColor=default;align=center;verticalAlign=middle;fontFamily=Helvetica;fontSize=11;fontColor=default;labelBackgroundColor=default;exitX=0.272;exitY=0.99;exitDx=0;exitDy=0;exitPerimeter=0;entryX=0.25;entryY=0;entryDx=0;entryDy=0;labelBorderColor=none;" parent="1" source="BIqDQKOm6haUxEqDbIF7-130" target="BIqDQKOm6haUxEqDbIF7-129" edge="1">
          <mxGeometry relative="1" as="geometry">
            <mxPoint x="630" y="250" as="sourcePoint" />
            <mxPoint x="790" y="250" as="targetPoint" />
          </mxGeometry>
        </mxCell>
        <mxCell id="BIqDQKOm6haUxEqDbIF7-190" value="Sp_id" style="ellipse;whiteSpace=wrap;html=1;align=center;strokeColor=default;verticalAlign=middle;fontFamily=Helvetica;fontSize=11;fontColor=default;labelBackgroundColor=default;fillColor=default;" parent="1" vertex="1">
          <mxGeometry x="600" y="400" width="100" height="40" as="geometry" />
        </mxCell>
        <mxCell id="BIqDQKOm6haUxEqDbIF7-192" value="customer" style="text;html=1;align=center;verticalAlign=middle;whiteSpace=wrap;rounded=0;fontFamily=Helvetica;fontSize=11;fontColor=default;labelBackgroundColor=default;rotation=2;" parent="1" vertex="1">
          <mxGeometry x="190" y="110" width="60" height="30" as="geometry" />
        </mxCell>
        <mxCell id="BIqDQKOm6haUxEqDbIF7-193" value="viewer" style="text;html=1;align=center;verticalAlign=middle;whiteSpace=wrap;rounded=0;fontFamily=Helvetica;fontSize=11;fontColor=default;labelBackgroundColor=default;rotation=30;" parent="1" vertex="1">
          <mxGeometry x="140" y="190" width="60" height="30" as="geometry" />
        </mxCell>
        <mxCell id="BIqDQKOm6haUxEqDbIF7-194" value="shower" style="text;html=1;align=center;verticalAlign=middle;whiteSpace=wrap;rounded=0;fontFamily=Helvetica;fontSize=11;fontColor=default;labelBackgroundColor=default;rotation=-75;" parent="1" vertex="1">
          <mxGeometry x="140" y="285" width="60" height="30" as="geometry" />
        </mxCell>
        <mxCell id="BIqDQKOm6haUxEqDbIF7-195" value="supervisor" style="text;html=1;align=center;verticalAlign=middle;whiteSpace=wrap;rounded=0;fontFamily=Helvetica;fontSize=11;fontColor=default;labelBackgroundColor=default;rotation=-60;" parent="1" vertex="1">
          <mxGeometry x="40" y="480" width="60" height="30" as="geometry" />
        </mxCell>
        <mxCell id="BIqDQKOm6haUxEqDbIF7-196" value="supervisee" style="text;html=1;align=center;verticalAlign=middle;whiteSpace=wrap;rounded=0;fontFamily=Helvetica;fontSize=11;fontColor=default;labelBackgroundColor=default;rotation=-65;" parent="1" vertex="1">
          <mxGeometry x="170" y="480" width="60" height="30" as="geometry" />
        </mxCell>
        <mxCell id="BIqDQKOm6haUxEqDbIF7-197" value="designatee" style="text;html=1;align=center;verticalAlign=middle;whiteSpace=wrap;rounded=0;fontFamily=Helvetica;fontSize=11;fontColor=default;labelBackgroundColor=default;" parent="1" vertex="1">
          <mxGeometry x="300" y="455" width="60" height="30" as="geometry" />
        </mxCell>
        <mxCell id="BIqDQKOm6haUxEqDbIF7-198" value="who entitles" style="text;html=1;align=center;verticalAlign=middle;whiteSpace=wrap;rounded=0;fontFamily=Helvetica;fontSize=11;fontColor=default;labelBackgroundColor=default;rotation=-10;" parent="1" vertex="1">
          <mxGeometry x="280" y="315" width="70" height="30" as="geometry" />
        </mxCell>
        <mxCell id="BIqDQKOm6haUxEqDbIF7-199" value="special project shown" style="text;html=1;align=center;verticalAlign=middle;whiteSpace=wrap;rounded=0;fontFamily=Helvetica;fontSize=11;fontColor=default;labelBackgroundColor=default;rotation=11;" parent="1" vertex="1">
          <mxGeometry x="350" y="255" width="110" height="30" as="geometry" />
        </mxCell>
        <mxCell id="BIqDQKOm6haUxEqDbIF7-200" value="server" style="text;html=1;align=center;verticalAlign=middle;whiteSpace=wrap;rounded=0;fontFamily=Helvetica;fontSize=11;fontColor=default;labelBackgroundColor=default;rotation=-40;" parent="1" vertex="1">
          <mxGeometry x="200" y="315" width="60" height="30" as="geometry" />
        </mxCell>
        <mxCell id="BIqDQKOm6haUxEqDbIF7-203" value="ordered service" style="text;html=1;align=center;verticalAlign=middle;whiteSpace=wrap;rounded=0;fontFamily=Helvetica;fontSize=11;fontColor=default;labelBackgroundColor=default;" parent="1" vertex="1">
          <mxGeometry x="420" y="110" width="90" height="30" as="geometry" />
        </mxCell>
        <mxCell id="BIqDQKOm6haUxEqDbIF7-204" value="services which includes" style="text;html=1;align=center;verticalAlign=middle;whiteSpace=wrap;rounded=0;fontFamily=Helvetica;fontSize=11;fontColor=default;labelBackgroundColor=default;rotation=25;" parent="1" vertex="1">
          <mxGeometry x="640" y="115" width="60" height="30" as="geometry" />
        </mxCell>
        <mxCell id="BIqDQKOm6haUxEqDbIF7-205" value="included technology" style="text;html=1;align=center;verticalAlign=middle;whiteSpace=wrap;rounded=0;fontFamily=Helvetica;fontSize=11;fontColor=default;labelBackgroundColor=default;rotation=-5;" parent="1" vertex="1">
          <mxGeometry x="770" y="100" width="60" height="30" as="geometry" />
        </mxCell>
        <mxCell id="BIqDQKOm6haUxEqDbIF7-206" value="provided subservices" style="text;html=1;align=center;verticalAlign=middle;resizable=0;points=[];autosize=1;strokeColor=none;fillColor=none;fontFamily=Helvetica;fontSize=11;fontColor=default;labelBackgroundColor=default;rotation=-42;" parent="1" vertex="1">
          <mxGeometry x="835" y="250" width="130" height="30" as="geometry" />
        </mxCell>
        <mxCell id="BIqDQKOm6haUxEqDbIF7-207" value="handled technology" style="text;html=1;align=center;verticalAlign=middle;resizable=0;points=[];autosize=1;strokeColor=none;fillColor=none;fontFamily=Helvetica;fontSize=11;fontColor=default;labelBackgroundColor=default;rotation=-30;" parent="1" vertex="1">
          <mxGeometry x="900" y="430" width="120" height="30" as="geometry" />
        </mxCell>
        <mxCell id="BIqDQKOm6haUxEqDbIF7-208" value="handled service" style="text;html=1;align=center;verticalAlign=middle;resizable=0;points=[];autosize=1;strokeColor=none;fillColor=none;fontFamily=Helvetica;fontSize=11;fontColor=default;labelBackgroundColor=default;rotation=50;" parent="1" vertex="1">
          <mxGeometry x="700" y="285" width="100" height="30" as="geometry" />
        </mxCell>
        <mxCell id="BIqDQKOm6haUxEqDbIF7-211" value="handler" style="text;html=1;align=center;verticalAlign=middle;resizable=0;points=[];autosize=1;strokeColor=none;fillColor=none;fontFamily=Helvetica;fontSize=11;fontColor=default;labelBackgroundColor=default;rotation=-45;" parent="1" vertex="1">
          <mxGeometry x="775" y="500" width="60" height="30" as="geometry" />
        </mxCell>
        <mxCell id="BIqDQKOm6haUxEqDbIF7-212" value="designator" style="text;html=1;align=center;verticalAlign=middle;resizable=0;points=[];autosize=1;strokeColor=none;fillColor=none;fontFamily=Helvetica;fontSize=11;fontColor=default;labelBackgroundColor=default;rotation=15;" parent="1" vertex="1">
          <mxGeometry x="600" y="530" width="70" height="30" as="geometry" />
        </mxCell>
        <mxCell id="BIqDQKOm6haUxEqDbIF7-216" value="handled special project" style="text;html=1;align=center;verticalAlign=middle;resizable=0;points=[];autosize=1;strokeColor=none;fillColor=none;fontFamily=Helvetica;fontSize=11;fontColor=default;labelBackgroundColor=default;" parent="1" vertex="1">
          <mxGeometry x="800" y="375" width="140" height="30" as="geometry" />
        </mxCell>
        <mxCell id="BIqDQKOm6haUxEqDbIF7-217" value="service to provide" style="text;html=1;align=center;verticalAlign=middle;resizable=0;points=[];autosize=1;strokeColor=none;fillColor=none;fontFamily=Helvetica;fontSize=11;fontColor=default;labelBackgroundColor=default;rotation=37;" parent="1" vertex="1">
          <mxGeometry x="725" y="250" width="110" height="30" as="geometry" />
        </mxCell>
        <mxCell id="BIqDQKOm6haUxEqDbIF7-218" value="service to entitle" style="text;html=1;align=center;verticalAlign=middle;resizable=0;points=[];autosize=1;strokeColor=none;fillColor=none;fontFamily=Helvetica;fontSize=11;fontColor=default;labelBackgroundColor=default;rotation=-20;" parent="1" vertex="1">
          <mxGeometry x="460" y="240" width="100" height="30" as="geometry" />
        </mxCell>
        <mxCell id="BIqDQKOm6haUxEqDbIF7-219" value="entitled service" style="text;html=1;align=center;verticalAlign=middle;resizable=0;points=[];autosize=1;strokeColor=none;fillColor=none;fontFamily=Helvetica;fontSize=11;fontColor=default;labelBackgroundColor=default;rotation=-6;" parent="1" vertex="1">
          <mxGeometry x="480" y="310" width="100" height="30" as="geometry" />
        </mxCell>
      </root>
    </mxGraphModel>
  </diagram>
  <diagram id="vcB4B8RN1yw_u2vGwvon" name="Page-2">
    <mxGraphModel dx="1512" dy="1423" grid="0" gridSize="10" guides="1" tooltips="1" connect="1" arrows="1" fold="1" page="0" pageScale="1" pageWidth="850" pageHeight="1100" math="0" shadow="0">
      <root>
        <mxCell id="0" />
        <mxCell id="1" parent="0" />
        <mxCell id="A7aOmcGS7sVbuuhgdiNV-1" value="USER" style="rounded=0;whiteSpace=wrap;html=1;" vertex="1" parent="1">
          <mxGeometry x="12.5" y="70" width="60" height="30" as="geometry" />
        </mxCell>
        <mxCell id="A7aOmcGS7sVbuuhgdiNV-2" value="LastName" style="ellipse;whiteSpace=wrap;html=1;" vertex="1" parent="1">
          <mxGeometry x="-14" y="-58" width="70" height="21" as="geometry" />
        </mxCell>
        <mxCell id="A7aOmcGS7sVbuuhgdiNV-3" value="Username" style="ellipse;whiteSpace=wrap;html=1;" vertex="1" parent="1">
          <mxGeometry x="-4" width="70" height="21" as="geometry" />
        </mxCell>
        <mxCell id="A7aOmcGS7sVbuuhgdiNV-4" value="FirstName" style="ellipse;whiteSpace=wrap;html=1;" vertex="1" parent="1">
          <mxGeometry x="-78" y="-44" width="70" height="28" as="geometry" />
        </mxCell>
        <mxCell id="A7aOmcGS7sVbuuhgdiNV-5" value="Password" style="ellipse;whiteSpace=wrap;html=1;" vertex="1" parent="1">
          <mxGeometry x="-125" y="4" width="70" height="29" as="geometry" />
        </mxCell>
        <mxCell id="A7aOmcGS7sVbuuhgdiNV-6" value="&lt;u&gt;UserId&lt;/u&gt;" style="ellipse;whiteSpace=wrap;html=1;" vertex="1" parent="1">
          <mxGeometry x="-99" y="105" width="54" height="20" as="geometry" />
        </mxCell>
        <mxCell id="A7aOmcGS7sVbuuhgdiNV-7" value="Email" style="ellipse;whiteSpace=wrap;html=1;" vertex="1" parent="1">
          <mxGeometry x="-102" y="58" width="55" height="26" as="geometry" />
        </mxCell>
        <mxCell id="A7aOmcGS7sVbuuhgdiNV-8" value="" style="endArrow=none;html=1;rounded=0;entryX=0.948;entryY=0.767;entryDx=0;entryDy=0;entryPerimeter=0;" edge="1" parent="1" source="A7aOmcGS7sVbuuhgdiNV-3" target="A7aOmcGS7sVbuuhgdiNV-4">
          <mxGeometry width="50" height="50" relative="1" as="geometry">
            <mxPoint x="40" y="90" as="sourcePoint" />
            <mxPoint x="90" y="50" as="targetPoint" />
          </mxGeometry>
        </mxCell>
        <mxCell id="A7aOmcGS7sVbuuhgdiNV-9" value="" style="endArrow=none;html=1;rounded=0;exitX=0.763;exitY=-0.017;exitDx=0;exitDy=0;exitPerimeter=0;entryX=0.5;entryY=1;entryDx=0;entryDy=0;" edge="1" parent="1" source="A7aOmcGS7sVbuuhgdiNV-3" target="A7aOmcGS7sVbuuhgdiNV-2">
          <mxGeometry width="50" height="50" relative="1" as="geometry">
            <mxPoint x="170" y="100" as="sourcePoint" />
            <mxPoint x="210" y="50" as="targetPoint" />
          </mxGeometry>
        </mxCell>
        <mxCell id="A7aOmcGS7sVbuuhgdiNV-10" value="" style="endArrow=none;html=1;rounded=0;entryX=0.363;entryY=0.967;entryDx=0;entryDy=0;exitX=0.083;exitY=0.011;exitDx=0;exitDy=0;exitPerimeter=0;entryPerimeter=0;" edge="1" parent="1" source="A7aOmcGS7sVbuuhgdiNV-1" target="A7aOmcGS7sVbuuhgdiNV-3">
          <mxGeometry width="50" height="50" relative="1" as="geometry">
            <mxPoint x="200" y="150" as="sourcePoint" />
            <mxPoint x="250" y="100" as="targetPoint" />
          </mxGeometry>
        </mxCell>
        <mxCell id="A7aOmcGS7sVbuuhgdiNV-11" value="" style="endArrow=none;html=1;rounded=0;entryX=0;entryY=0.75;entryDx=0;entryDy=0;exitX=1;exitY=0.5;exitDx=0;exitDy=0;" edge="1" parent="1" source="A7aOmcGS7sVbuuhgdiNV-7" target="A7aOmcGS7sVbuuhgdiNV-1">
          <mxGeometry width="50" height="50" relative="1" as="geometry">
            <mxPoint x="110" y="240" as="sourcePoint" />
            <mxPoint x="160" y="190" as="targetPoint" />
          </mxGeometry>
        </mxCell>
        <mxCell id="A7aOmcGS7sVbuuhgdiNV-12" value="" style="endArrow=none;html=1;rounded=0;exitX=1;exitY=0.5;exitDx=0;exitDy=0;entryX=0.094;entryY=1.022;entryDx=0;entryDy=0;entryPerimeter=0;" edge="1" parent="1" source="A7aOmcGS7sVbuuhgdiNV-6" target="A7aOmcGS7sVbuuhgdiNV-1">
          <mxGeometry width="50" height="50" relative="1" as="geometry">
            <mxPoint x="250" y="280" as="sourcePoint" />
            <mxPoint x="300" y="230" as="targetPoint" />
          </mxGeometry>
        </mxCell>
        <mxCell id="A7aOmcGS7sVbuuhgdiNV-13" value="" style="endArrow=none;html=1;rounded=0;entryX=0.689;entryY=0.967;entryDx=0;entryDy=0;entryPerimeter=0;exitX=0;exitY=0;exitDx=0;exitDy=0;" edge="1" parent="1" source="A7aOmcGS7sVbuuhgdiNV-1" target="A7aOmcGS7sVbuuhgdiNV-5">
          <mxGeometry width="50" height="50" relative="1" as="geometry">
            <mxPoint x="300" y="150" as="sourcePoint" />
            <mxPoint x="360" y="130" as="targetPoint" />
          </mxGeometry>
        </mxCell>
        <mxCell id="A7aOmcGS7sVbuuhgdiNV-14" value="EMPLOYEE" style="rounded=0;whiteSpace=wrap;html=1;" vertex="1" parent="1">
          <mxGeometry x="-128" y="554" width="90" height="30" as="geometry" />
        </mxCell>
        <mxCell id="A7aOmcGS7sVbuuhgdiNV-15" value="&lt;u&gt;UserId&lt;/u&gt;" style="ellipse;whiteSpace=wrap;html=1;" vertex="1" parent="1">
          <mxGeometry x="-184" y="429" width="62" height="21" as="geometry" />
        </mxCell>
        <mxCell id="A7aOmcGS7sVbuuhgdiNV-16" value="Designation" style="ellipse;whiteSpace=wrap;html=1;" vertex="1" parent="1">
          <mxGeometry x="-242" y="505" width="70" height="26" as="geometry" />
        </mxCell>
        <mxCell id="A7aOmcGS7sVbuuhgdiNV-17" value="" style="endArrow=none;html=1;rounded=0;entryX=0;entryY=0;entryDx=0;entryDy=0;" edge="1" parent="1" source="A7aOmcGS7sVbuuhgdiNV-15" target="A7aOmcGS7sVbuuhgdiNV-14">
          <mxGeometry width="50" height="50" relative="1" as="geometry">
            <mxPoint x="210" y="410" as="sourcePoint" />
            <mxPoint x="260" y="360" as="targetPoint" />
          </mxGeometry>
        </mxCell>
        <mxCell id="A7aOmcGS7sVbuuhgdiNV-18" value="" style="endArrow=none;html=1;rounded=0;entryX=0;entryY=0.75;entryDx=0;entryDy=0;" edge="1" parent="1" source="A7aOmcGS7sVbuuhgdiNV-16" target="A7aOmcGS7sVbuuhgdiNV-14">
          <mxGeometry width="50" height="50" relative="1" as="geometry">
            <mxPoint x="270" y="570" as="sourcePoint" />
            <mxPoint x="-367" y="347" as="targetPoint" />
          </mxGeometry>
        </mxCell>
        <mxCell id="A7aOmcGS7sVbuuhgdiNV-20" value="&lt;u&gt;UserId&lt;/u&gt;" style="ellipse;whiteSpace=wrap;html=1;" vertex="1" parent="1">
          <mxGeometry x="82" y="135" width="75" height="20" as="geometry" />
        </mxCell>
        <mxCell id="A7aOmcGS7sVbuuhgdiNV-21" value="" style="endArrow=none;html=1;rounded=0;exitX=1;exitY=0.5;exitDx=0;exitDy=0;" edge="1" parent="1" source="A7aOmcGS7sVbuuhgdiNV-19">
          <mxGeometry width="50" height="50" relative="1" as="geometry">
            <mxPoint x="320" y="740" as="sourcePoint" />
            <mxPoint x="138" y="193" as="targetPoint" />
          </mxGeometry>
        </mxCell>
        <mxCell id="A7aOmcGS7sVbuuhgdiNV-22" value="SUPERVISE" style="rhombus;whiteSpace=wrap;html=1;" vertex="1" parent="1">
          <mxGeometry x="-131.75" y="673" width="97.5" height="60" as="geometry" />
        </mxCell>
        <mxCell id="A7aOmcGS7sVbuuhgdiNV-23" value="" style="endArrow=none;html=1;rounded=0;entryX=0;entryY=1;entryDx=0;entryDy=0;exitX=0;exitY=0.5;exitDx=0;exitDy=0;" edge="1" parent="1" source="A7aOmcGS7sVbuuhgdiNV-22" target="A7aOmcGS7sVbuuhgdiNV-14">
          <mxGeometry width="50" height="50" relative="1" as="geometry">
            <mxPoint x="170" y="740" as="sourcePoint" />
            <mxPoint x="340" y="780" as="targetPoint" />
          </mxGeometry>
        </mxCell>
        <mxCell id="A7aOmcGS7sVbuuhgdiNV-24" value="" style="endArrow=none;html=1;rounded=0;exitX=1;exitY=0.5;exitDx=0;exitDy=0;entryX=1;entryY=1;entryDx=0;entryDy=0;" edge="1" parent="1" source="A7aOmcGS7sVbuuhgdiNV-22" target="A7aOmcGS7sVbuuhgdiNV-14">
          <mxGeometry width="50" height="50" relative="1" as="geometry">
            <mxPoint x="290" y="830" as="sourcePoint" />
            <mxPoint x="340" y="780" as="targetPoint" />
          </mxGeometry>
        </mxCell>
        <mxCell id="A7aOmcGS7sVbuuhgdiNV-29" value="DESIGNATE" style="rhombus;whiteSpace=wrap;html=1;" vertex="1" parent="1">
          <mxGeometry x="-8" y="359" width="130" height="60" as="geometry" />
        </mxCell>
        <mxCell id="A7aOmcGS7sVbuuhgdiNV-30" value="" style="endArrow=none;html=1;rounded=0;exitX=0.5;exitY=1;exitDx=0;exitDy=0;entryX=1;entryY=0;entryDx=0;entryDy=0;" edge="1" parent="1" source="A7aOmcGS7sVbuuhgdiNV-19" target="A7aOmcGS7sVbuuhgdiNV-29">
          <mxGeometry width="50" height="50" relative="1" as="geometry">
            <mxPoint x="290" y="330" as="sourcePoint" />
            <mxPoint x="340" y="280" as="targetPoint" />
          </mxGeometry>
        </mxCell>
        <mxCell id="A7aOmcGS7sVbuuhgdiNV-31" value="" style="endArrow=none;html=1;rounded=0;exitX=0.75;exitY=0;exitDx=0;exitDy=0;shape=link;entryX=0;entryY=0.5;entryDx=0;entryDy=0;" edge="1" parent="1" source="A7aOmcGS7sVbuuhgdiNV-14" target="A7aOmcGS7sVbuuhgdiNV-29">
          <mxGeometry width="50" height="50" relative="1" as="geometry">
            <mxPoint x="290" y="550" as="sourcePoint" />
            <mxPoint x="-478" y="556" as="targetPoint" />
            <Array as="points" />
          </mxGeometry>
        </mxCell>
        <mxCell id="A7aOmcGS7sVbuuhgdiNV-36" value="SERVICE" style="rounded=0;whiteSpace=wrap;html=1;" vertex="1" parent="1">
          <mxGeometry x="948" y="-15" width="120" height="40" as="geometry" />
        </mxCell>
        <mxCell id="A7aOmcGS7sVbuuhgdiNV-37" value="Description" style="ellipse;whiteSpace=wrap;html=1;" vertex="1" parent="1">
          <mxGeometry x="829" y="-10" width="80" height="25" as="geometry" />
        </mxCell>
        <mxCell id="A7aOmcGS7sVbuuhgdiNV-38" value="&lt;u&gt;ServiceId&lt;/u&gt;" style="ellipse;whiteSpace=wrap;html=1;" vertex="1" parent="1">
          <mxGeometry x="992.5" y="-95" width="80" height="25" as="geometry" />
        </mxCell>
        <mxCell id="A7aOmcGS7sVbuuhgdiNV-39" value="TechnologyId" style="ellipse;whiteSpace=wrap;html=1;" vertex="1" parent="1">
          <mxGeometry x="852" y="-92" width="80" height="25" as="geometry" />
        </mxCell>
        <mxCell id="A7aOmcGS7sVbuuhgdiNV-40" value="SubserviceId" style="ellipse;whiteSpace=wrap;html=1;" vertex="1" parent="1">
          <mxGeometry x="907" y="-123" width="80" height="25" as="geometry" />
        </mxCell>
        <mxCell id="A7aOmcGS7sVbuuhgdiNV-41" value="" style="endArrow=none;html=1;rounded=0;entryX=1;entryY=1;entryDx=0;entryDy=0;exitX=0;exitY=0.5;exitDx=0;exitDy=0;" edge="1" parent="1" source="A7aOmcGS7sVbuuhgdiNV-36" target="A7aOmcGS7sVbuuhgdiNV-37">
          <mxGeometry width="50" height="50" relative="1" as="geometry">
            <mxPoint x="730" y="180" as="sourcePoint" />
            <mxPoint x="700" y="290" as="targetPoint" />
          </mxGeometry>
        </mxCell>
        <mxCell id="A7aOmcGS7sVbuuhgdiNV-42" value="" style="endArrow=none;html=1;rounded=0;exitX=0.423;exitY=1.032;exitDx=0;exitDy=0;entryX=0;entryY=0.25;entryDx=0;entryDy=0;exitPerimeter=0;" edge="1" parent="1" source="A7aOmcGS7sVbuuhgdiNV-39" target="A7aOmcGS7sVbuuhgdiNV-36">
          <mxGeometry width="50" height="50" relative="1" as="geometry">
            <mxPoint x="680" y="340" as="sourcePoint" />
            <mxPoint x="730" y="290" as="targetPoint" />
          </mxGeometry>
        </mxCell>
        <mxCell id="A7aOmcGS7sVbuuhgdiNV-43" value="" style="endArrow=none;html=1;rounded=0;exitX=0.761;exitY=0.887;exitDx=0;exitDy=0;exitPerimeter=0;entryX=0.25;entryY=0;entryDx=0;entryDy=0;" edge="1" parent="1" source="A7aOmcGS7sVbuuhgdiNV-40" target="A7aOmcGS7sVbuuhgdiNV-36">
          <mxGeometry width="50" height="50" relative="1" as="geometry">
            <mxPoint x="680" y="340" as="sourcePoint" />
            <mxPoint x="730" y="290" as="targetPoint" />
          </mxGeometry>
        </mxCell>
        <mxCell id="A7aOmcGS7sVbuuhgdiNV-44" value="" style="endArrow=none;html=1;rounded=0;exitX=0.383;exitY=0.938;exitDx=0;exitDy=0;exitPerimeter=0;entryX=0.426;entryY=-0.067;entryDx=0;entryDy=0;entryPerimeter=0;" edge="1" parent="1" source="A7aOmcGS7sVbuuhgdiNV-38" target="A7aOmcGS7sVbuuhgdiNV-36">
          <mxGeometry width="50" height="50" relative="1" as="geometry">
            <mxPoint x="680" y="340" as="sourcePoint" />
            <mxPoint x="730" y="290" as="targetPoint" />
          </mxGeometry>
        </mxCell>
        <mxCell id="A7aOmcGS7sVbuuhgdiNV-45" value="NoOfServices" style="ellipse;whiteSpace=wrap;html=1;dashed=1;dashPattern=8 8;" vertex="1" parent="1">
          <mxGeometry x="1061" y="-70" width="87" height="30" as="geometry" />
        </mxCell>
        <mxCell id="A7aOmcGS7sVbuuhgdiNV-46" value="" style="endArrow=none;html=1;rounded=0;exitX=0.943;exitY=0.035;exitDx=0;exitDy=0;exitPerimeter=0;entryX=0.5;entryY=1;entryDx=0;entryDy=0;" edge="1" parent="1" source="A7aOmcGS7sVbuuhgdiNV-36" target="A7aOmcGS7sVbuuhgdiNV-45">
          <mxGeometry width="50" height="50" relative="1" as="geometry">
            <mxPoint x="740" y="250" as="sourcePoint" />
            <mxPoint x="790" y="200" as="targetPoint" />
          </mxGeometry>
        </mxCell>
        <mxCell id="A7aOmcGS7sVbuuhgdiNV-47" value="SPECIAL_SERVICE" style="shape=ext;margin=3;double=1;whiteSpace=wrap;html=1;align=center;" vertex="1" parent="1">
          <mxGeometry x="487" y="642" width="130" height="40" as="geometry" />
        </mxCell>
        <mxCell id="A7aOmcGS7sVbuuhgdiNV-48" value="OrderId" style="ellipse;whiteSpace=wrap;html=1;" vertex="1" parent="1">
          <mxGeometry x="406" y="658" width="52" height="30" as="geometry" />
        </mxCell>
        <mxCell id="A7aOmcGS7sVbuuhgdiNV-49" value="&lt;u&gt;SpId&lt;/u&gt;" style="ellipse;whiteSpace=wrap;html=1;" vertex="1" parent="1">
          <mxGeometry x="458" y="722" width="49" height="20" as="geometry" />
        </mxCell>
        <mxCell id="A7aOmcGS7sVbuuhgdiNV-50" value="TechnologyId" style="ellipse;whiteSpace=wrap;html=1;" vertex="1" parent="1">
          <mxGeometry x="565" y="717" width="78" height="30" as="geometry" />
        </mxCell>
        <mxCell id="A7aOmcGS7sVbuuhgdiNV-51" value="SubserviceId" style="ellipse;whiteSpace=wrap;html=1;" vertex="1" parent="1">
          <mxGeometry x="645.5" y="655" width="80.5" height="30" as="geometry" />
        </mxCell>
        <mxCell id="A7aOmcGS7sVbuuhgdiNV-52" value="" style="endArrow=none;html=1;rounded=0;exitX=1;exitY=0;exitDx=0;exitDy=0;entryX=0.5;entryY=1;entryDx=0;entryDy=0;" edge="1" parent="1" source="A7aOmcGS7sVbuuhgdiNV-49" target="A7aOmcGS7sVbuuhgdiNV-47">
          <mxGeometry width="50" height="50" relative="1" as="geometry">
            <mxPoint x="660" y="490" as="sourcePoint" />
            <mxPoint x="710" y="440" as="targetPoint" />
          </mxGeometry>
        </mxCell>
        <mxCell id="A7aOmcGS7sVbuuhgdiNV-53" value="" style="endArrow=none;html=1;rounded=0;exitX=0.5;exitY=0;exitDx=0;exitDy=0;entryX=0.75;entryY=1;entryDx=0;entryDy=0;" edge="1" parent="1" source="A7aOmcGS7sVbuuhgdiNV-50" target="A7aOmcGS7sVbuuhgdiNV-47">
          <mxGeometry width="50" height="50" relative="1" as="geometry">
            <mxPoint x="660" y="490" as="sourcePoint" />
            <mxPoint x="710" y="440" as="targetPoint" />
          </mxGeometry>
        </mxCell>
        <mxCell id="A7aOmcGS7sVbuuhgdiNV-54" value="" style="endArrow=none;html=1;rounded=0;entryX=1;entryY=1;entryDx=0;entryDy=0;exitX=0;exitY=1;exitDx=0;exitDy=0;" edge="1" parent="1" source="A7aOmcGS7sVbuuhgdiNV-47" target="A7aOmcGS7sVbuuhgdiNV-48">
          <mxGeometry width="50" height="50" relative="1" as="geometry">
            <mxPoint x="740" y="490" as="sourcePoint" />
            <mxPoint x="710" y="440" as="targetPoint" />
          </mxGeometry>
        </mxCell>
        <mxCell id="A7aOmcGS7sVbuuhgdiNV-55" value="" style="endArrow=none;html=1;rounded=0;exitX=1;exitY=0.5;exitDx=0;exitDy=0;" edge="1" parent="1" source="A7aOmcGS7sVbuuhgdiNV-47" target="A7aOmcGS7sVbuuhgdiNV-51">
          <mxGeometry width="50" height="50" relative="1" as="geometry">
            <mxPoint x="660" y="490" as="sourcePoint" />
            <mxPoint x="710" y="440" as="targetPoint" />
          </mxGeometry>
        </mxCell>
        <mxCell id="A7aOmcGS7sVbuuhgdiNV-56" value="ENTITLE" style="shape=rhombus;double=1;perimeter=rhombusPerimeter;whiteSpace=wrap;html=1;align=center;" vertex="1" parent="1">
          <mxGeometry x="352" y="474" width="120" height="60" as="geometry" />
        </mxCell>
        <mxCell id="A7aOmcGS7sVbuuhgdiNV-58" value="ORDER_DETAIL" style="rounded=0;whiteSpace=wrap;html=1;" vertex="1" parent="1">
          <mxGeometry x="598" y="378" width="130" height="30" as="geometry" />
        </mxCell>
        <mxCell id="A7aOmcGS7sVbuuhgdiNV-59" value="&lt;u&gt;OrderId&lt;/u&gt;" style="ellipse;whiteSpace=wrap;html=1;" vertex="1" parent="1">
          <mxGeometry x="617" y="495" width="64" height="30" as="geometry" />
        </mxCell>
        <mxCell id="A7aOmcGS7sVbuuhgdiNV-60" value="PaymentStatus" style="ellipse;whiteSpace=wrap;html=1;" vertex="1" parent="1">
          <mxGeometry x="670" y="538" width="98" height="30" as="geometry" />
        </mxCell>
        <mxCell id="A7aOmcGS7sVbuuhgdiNV-61" value="Price" style="ellipse;whiteSpace=wrap;html=1;" vertex="1" parent="1">
          <mxGeometry x="586" y="465" width="59.5" height="20" as="geometry" />
        </mxCell>
        <mxCell id="A7aOmcGS7sVbuuhgdiNV-62" value="Review" style="ellipse;whiteSpace=wrap;html=1;" vertex="1" parent="1">
          <mxGeometry x="701" y="425.5" width="57" height="30" as="geometry" />
        </mxCell>
        <mxCell id="A7aOmcGS7sVbuuhgdiNV-63" value="ServiceId" style="ellipse;whiteSpace=wrap;html=1;" vertex="1" parent="1">
          <mxGeometry x="781" y="362.5" width="64" height="30" as="geometry" />
        </mxCell>
        <mxCell id="A7aOmcGS7sVbuuhgdiNV-64" value="UserId" style="ellipse;whiteSpace=wrap;html=1;" vertex="1" parent="1">
          <mxGeometry x="723.5" y="470" width="53.5" height="30" as="geometry" />
        </mxCell>
        <mxCell id="A7aOmcGS7sVbuuhgdiNV-65" value="EmployeeId" style="ellipse;whiteSpace=wrap;html=1;" vertex="1" parent="1">
          <mxGeometry x="814" y="408" width="78" height="30" as="geometry" />
        </mxCell>
        <mxCell id="A7aOmcGS7sVbuuhgdiNV-66" value="" style="endArrow=none;html=1;rounded=0;exitX=0.624;exitY=0.007;exitDx=0;exitDy=0;entryX=0.337;entryY=1.007;entryDx=0;entryDy=0;entryPerimeter=0;exitPerimeter=0;" edge="1" parent="1" source="A7aOmcGS7sVbuuhgdiNV-59" target="A7aOmcGS7sVbuuhgdiNV-58">
          <mxGeometry width="50" height="50" relative="1" as="geometry">
            <mxPoint x="670" y="650" as="sourcePoint" />
            <mxPoint x="790" y="810" as="targetPoint" />
          </mxGeometry>
        </mxCell>
        <mxCell id="A7aOmcGS7sVbuuhgdiNV-67" value="" style="endArrow=none;html=1;rounded=0;exitX=0;exitY=0.5;exitDx=0;exitDy=0;" edge="1" parent="1" source="A7aOmcGS7sVbuuhgdiNV-64">
          <mxGeometry width="50" height="50" relative="1" as="geometry">
            <mxPoint x="670" y="650" as="sourcePoint" />
            <mxPoint x="657" y="408" as="targetPoint" />
          </mxGeometry>
        </mxCell>
        <mxCell id="A7aOmcGS7sVbuuhgdiNV-68" value="" style="endArrow=none;html=1;rounded=0;entryX=0.911;entryY=0.969;entryDx=0;entryDy=0;entryPerimeter=0;exitX=0;exitY=0.5;exitDx=0;exitDy=0;" edge="1" parent="1" source="A7aOmcGS7sVbuuhgdiNV-65" target="A7aOmcGS7sVbuuhgdiNV-58">
          <mxGeometry width="50" height="50" relative="1" as="geometry">
            <mxPoint x="674" y="359" as="sourcePoint" />
            <mxPoint x="720" y="600" as="targetPoint" />
          </mxGeometry>
        </mxCell>
        <mxCell id="A7aOmcGS7sVbuuhgdiNV-69" value="" style="endArrow=none;html=1;rounded=0;exitX=0;exitY=0.5;exitDx=0;exitDy=0;entryX=1;entryY=0.5;entryDx=0;entryDy=0;" edge="1" parent="1" source="A7aOmcGS7sVbuuhgdiNV-63" target="A7aOmcGS7sVbuuhgdiNV-58">
          <mxGeometry width="50" height="50" relative="1" as="geometry">
            <mxPoint x="670" y="650" as="sourcePoint" />
            <mxPoint x="720" y="600" as="targetPoint" />
          </mxGeometry>
        </mxCell>
        <mxCell id="A7aOmcGS7sVbuuhgdiNV-70" value="" style="endArrow=none;html=1;rounded=0;exitX=0.416;exitY=0.087;exitDx=0;exitDy=0;entryX=0.411;entryY=1.033;entryDx=0;entryDy=0;entryPerimeter=0;exitPerimeter=0;" edge="1" parent="1" source="A7aOmcGS7sVbuuhgdiNV-60" target="A7aOmcGS7sVbuuhgdiNV-58">
          <mxGeometry width="50" height="50" relative="1" as="geometry">
            <mxPoint x="670" y="650" as="sourcePoint" />
            <mxPoint x="720" y="600" as="targetPoint" />
          </mxGeometry>
        </mxCell>
        <mxCell id="A7aOmcGS7sVbuuhgdiNV-71" value="" style="endArrow=none;html=1;rounded=0;exitX=0.5;exitY=0;exitDx=0;exitDy=0;entryX=0.25;entryY=1;entryDx=0;entryDy=0;" edge="1" parent="1" source="A7aOmcGS7sVbuuhgdiNV-61" target="A7aOmcGS7sVbuuhgdiNV-58">
          <mxGeometry width="50" height="50" relative="1" as="geometry">
            <mxPoint x="670" y="650" as="sourcePoint" />
            <mxPoint x="720" y="600" as="targetPoint" />
          </mxGeometry>
        </mxCell>
        <mxCell id="A7aOmcGS7sVbuuhgdiNV-72" value="" style="endArrow=none;html=1;rounded=0;exitX=0;exitY=0.5;exitDx=0;exitDy=0;entryX=0.5;entryY=1;entryDx=0;entryDy=0;" edge="1" parent="1" source="A7aOmcGS7sVbuuhgdiNV-62" target="A7aOmcGS7sVbuuhgdiNV-58">
          <mxGeometry width="50" height="50" relative="1" as="geometry">
            <mxPoint x="670" y="650" as="sourcePoint" />
            <mxPoint x="720" y="600" as="targetPoint" />
          </mxGeometry>
        </mxCell>
        <mxCell id="A7aOmcGS7sVbuuhgdiNV-74" value="" style="endArrow=none;html=1;rounded=0;entryX=0.838;entryY=0.33;entryDx=0;entryDy=0;exitX=0;exitY=1;exitDx=0;exitDy=0;entryPerimeter=0;" edge="1" parent="1" source="A7aOmcGS7sVbuuhgdiNV-58" target="A7aOmcGS7sVbuuhgdiNV-56">
          <mxGeometry width="50" height="50" relative="1" as="geometry">
            <mxPoint x="540" y="660" as="sourcePoint" />
            <mxPoint x="590" y="610" as="targetPoint" />
          </mxGeometry>
        </mxCell>
        <mxCell id="A7aOmcGS7sVbuuhgdiNV-81" value="" style="endArrow=none;html=1;rounded=0;exitX=1;exitY=1;exitDx=0;exitDy=0;entryX=0;entryY=0.5;entryDx=0;entryDy=0;" edge="1" parent="1" source="A7aOmcGS7sVbuuhgdiNV-1" target="A7aOmcGS7sVbuuhgdiNV-87">
          <mxGeometry width="50" height="50" relative="1" as="geometry">
            <mxPoint x="450" y="430" as="sourcePoint" />
            <mxPoint x="410" y="159.9999999999999" as="targetPoint" />
          </mxGeometry>
        </mxCell>
        <mxCell id="A7aOmcGS7sVbuuhgdiNV-82" value="" style="endArrow=none;html=1;rounded=0;exitX=1;exitY=0.5;exitDx=0;exitDy=0;shape=link;entryX=0.25;entryY=0;entryDx=0;entryDy=0;" edge="1" parent="1" source="A7aOmcGS7sVbuuhgdiNV-87" target="A7aOmcGS7sVbuuhgdiNV-58">
          <mxGeometry width="50" height="50" relative="1" as="geometry">
            <mxPoint x="530" y="159.9999999999999" as="sourcePoint" />
            <mxPoint x="820" y="820" as="targetPoint" />
          </mxGeometry>
        </mxCell>
        <mxCell id="A7aOmcGS7sVbuuhgdiNV-83" value="1" style="text;html=1;align=center;verticalAlign=middle;resizable=0;points=[];autosize=1;strokeColor=none;fillColor=none;" vertex="1" parent="1">
          <mxGeometry x="349" y="120" width="30" height="30" as="geometry" />
        </mxCell>
        <mxCell id="A7aOmcGS7sVbuuhgdiNV-84" value="N" style="text;html=1;align=center;verticalAlign=middle;resizable=0;points=[];autosize=1;strokeColor=none;fillColor=none;" vertex="1" parent="1">
          <mxGeometry x="465" y="118" width="30" height="30" as="geometry" />
        </mxCell>
        <mxCell id="A7aOmcGS7sVbuuhgdiNV-85" value="Placer" style="text;html=1;align=center;verticalAlign=middle;resizable=0;points=[];autosize=1;strokeColor=none;fillColor=none;rotation=10;" vertex="1" parent="1">
          <mxGeometry x="261" y="105" width="60" height="30" as="geometry" />
        </mxCell>
        <mxCell id="A7aOmcGS7sVbuuhgdiNV-87" value="PLACES" style="rhombus;whiteSpace=wrap;html=1;" vertex="1" parent="1">
          <mxGeometry x="366" y="125" width="115" height="52.5" as="geometry" />
        </mxCell>
        <mxCell id="A7aOmcGS7sVbuuhgdiNV-88" value="" style="endArrow=none;html=1;rounded=0;exitX=1;exitY=0;exitDx=0;exitDy=0;entryX=0.5;entryY=1;entryDx=0;entryDy=0;" edge="1" parent="1" source="A7aOmcGS7sVbuuhgdiNV-14" target="A7aOmcGS7sVbuuhgdiNV-87">
          <mxGeometry width="50" height="50" relative="1" as="geometry">
            <mxPoint x="360" y="520" as="sourcePoint" />
            <mxPoint x="410" y="470" as="targetPoint" />
            <Array as="points" />
          </mxGeometry>
        </mxCell>
        <mxCell id="A7aOmcGS7sVbuuhgdiNV-89" value="1" style="text;html=1;align=center;verticalAlign=middle;resizable=0;points=[];autosize=1;strokeColor=none;fillColor=none;" vertex="1" parent="1">
          <mxGeometry x="413" y="175" width="30" height="30" as="geometry" />
        </mxCell>
        <mxCell id="A7aOmcGS7sVbuuhgdiNV-90" value="Server" style="text;html=1;align=center;verticalAlign=middle;resizable=0;points=[];autosize=1;strokeColor=none;fillColor=none;rotation=-45;" vertex="1" parent="1">
          <mxGeometry x="336" y="170" width="60" height="30" as="geometry" />
        </mxCell>
        <mxCell id="A7aOmcGS7sVbuuhgdiNV-91" value="REVIEW" style="rhombus;whiteSpace=wrap;html=1;" vertex="1" parent="1">
          <mxGeometry x="540.5" y="70" width="140" height="50" as="geometry" />
        </mxCell>
        <mxCell id="A7aOmcGS7sVbuuhgdiNV-92" value="" style="endArrow=none;html=1;rounded=0;entryX=0;entryY=0.5;entryDx=0;entryDy=0;exitX=1;exitY=0.75;exitDx=0;exitDy=0;" edge="1" parent="1" source="A7aOmcGS7sVbuuhgdiNV-1" target="A7aOmcGS7sVbuuhgdiNV-91">
          <mxGeometry width="50" height="50" relative="1" as="geometry">
            <mxPoint x="600" y="290" as="sourcePoint" />
            <mxPoint x="650" y="240" as="targetPoint" />
            <Array as="points" />
          </mxGeometry>
        </mxCell>
        <mxCell id="A7aOmcGS7sVbuuhgdiNV-98" value="Rank" style="ellipse;whiteSpace=wrap;html=1;" vertex="1" parent="1">
          <mxGeometry x="130" y="293" width="66" height="22" as="geometry" />
        </mxCell>
        <mxCell id="A7aOmcGS7sVbuuhgdiNV-99" value="" style="endArrow=none;html=1;rounded=0;exitX=0;exitY=1;exitDx=0;exitDy=0;entryX=1;entryY=0.5;entryDx=0;entryDy=0;" edge="1" parent="1" source="A7aOmcGS7sVbuuhgdiNV-98" target="A7aOmcGS7sVbuuhgdiNV-29">
          <mxGeometry width="50" height="50" relative="1" as="geometry">
            <mxPoint x="410" y="460" as="sourcePoint" />
            <mxPoint x="460" y="410" as="targetPoint" />
          </mxGeometry>
        </mxCell>
        <mxCell id="A7aOmcGS7sVbuuhgdiNV-100" value="PAY" style="rhombus;whiteSpace=wrap;html=1;" vertex="1" parent="1">
          <mxGeometry x="680.5" y="19" width="65" height="37" as="geometry" />
        </mxCell>
        <mxCell id="A7aOmcGS7sVbuuhgdiNV-103" value="PaymentStatus" style="ellipse;whiteSpace=wrap;html=1;" vertex="1" parent="1">
          <mxGeometry x="701" y="-48" width="110" height="20" as="geometry" />
        </mxCell>
        <mxCell id="A7aOmcGS7sVbuuhgdiNV-104" value="" style="endArrow=none;html=1;rounded=0;exitX=0.5;exitY=0;exitDx=0;exitDy=0;entryX=0.553;entryY=1.052;entryDx=0;entryDy=0;entryPerimeter=0;" edge="1" parent="1" source="A7aOmcGS7sVbuuhgdiNV-100" target="A7aOmcGS7sVbuuhgdiNV-103">
          <mxGeometry width="50" height="50" relative="1" as="geometry">
            <mxPoint x="1040" y="80" as="sourcePoint" />
            <mxPoint x="1090" y="30" as="targetPoint" />
          </mxGeometry>
        </mxCell>
        <mxCell id="A7aOmcGS7sVbuuhgdiNV-109" value="WORKS_ON" style="rhombus;whiteSpace=wrap;html=1;" vertex="1" parent="1">
          <mxGeometry x="356" y="333" width="120" height="40" as="geometry" />
        </mxCell>
        <mxCell id="A7aOmcGS7sVbuuhgdiNV-111" value="" style="endArrow=none;html=1;rounded=0;exitX=1;exitY=0.5;exitDx=0;exitDy=0;entryX=0;entryY=0.25;entryDx=0;entryDy=0;shape=link;" edge="1" parent="1" source="A7aOmcGS7sVbuuhgdiNV-109" target="A7aOmcGS7sVbuuhgdiNV-58">
          <mxGeometry width="50" height="50" relative="1" as="geometry">
            <mxPoint x="510" y="730" as="sourcePoint" />
            <mxPoint x="560" y="680" as="targetPoint" />
            <Array as="points" />
          </mxGeometry>
        </mxCell>
        <mxCell id="A7aOmcGS7sVbuuhgdiNV-116" value="CONTAINS" style="rhombus;whiteSpace=wrap;html=1;" vertex="1" parent="1">
          <mxGeometry x="852.5" y="170" width="140" height="40" as="geometry" />
        </mxCell>
        <mxCell id="A7aOmcGS7sVbuuhgdiNV-117" value="" style="endArrow=none;html=1;rounded=0;entryX=0;entryY=0.5;entryDx=0;entryDy=0;exitX=1;exitY=0;exitDx=0;exitDy=0;shape=link;" edge="1" parent="1" source="A7aOmcGS7sVbuuhgdiNV-58" target="A7aOmcGS7sVbuuhgdiNV-116">
          <mxGeometry width="50" height="50" relative="1" as="geometry">
            <mxPoint x="1120" y="560" as="sourcePoint" />
            <mxPoint x="1170" y="510" as="targetPoint" />
            <Array as="points" />
          </mxGeometry>
        </mxCell>
        <mxCell id="A7aOmcGS7sVbuuhgdiNV-118" value="" style="endArrow=none;html=1;rounded=0;entryX=0.5;entryY=0;entryDx=0;entryDy=0;exitX=0;exitY=1;exitDx=0;exitDy=0;" edge="1" parent="1" source="A7aOmcGS7sVbuuhgdiNV-36" target="A7aOmcGS7sVbuuhgdiNV-116">
          <mxGeometry width="50" height="50" relative="1" as="geometry">
            <mxPoint x="1120" y="490" as="sourcePoint" />
            <mxPoint x="1170" y="440" as="targetPoint" />
          </mxGeometry>
        </mxCell>
        <mxCell id="A7aOmcGS7sVbuuhgdiNV-123" value="TECHNOLOGY" style="rounded=0;whiteSpace=wrap;html=1;" vertex="1" parent="1">
          <mxGeometry x="1250" y="190" width="100" height="30" as="geometry" />
        </mxCell>
        <mxCell id="A7aOmcGS7sVbuuhgdiNV-124" value="&lt;u&gt;TechId&lt;/u&gt;" style="ellipse;whiteSpace=wrap;html=1;" vertex="1" parent="1">
          <mxGeometry x="1354" y="105" width="64" height="30" as="geometry" />
        </mxCell>
        <mxCell id="A7aOmcGS7sVbuuhgdiNV-125" value="NoOfTechnologies" style="ellipse;whiteSpace=wrap;html=1;dashed=1;dashPattern=12 12;" vertex="1" parent="1">
          <mxGeometry x="1199" y="255" width="120" height="30" as="geometry" />
        </mxCell>
        <mxCell id="A7aOmcGS7sVbuuhgdiNV-126" value="Description" style="ellipse;whiteSpace=wrap;html=1;" vertex="1" parent="1">
          <mxGeometry x="1438" y="125" width="72" height="26" as="geometry" />
        </mxCell>
        <mxCell id="A7aOmcGS7sVbuuhgdiNV-127" value="" style="endArrow=none;html=1;rounded=0;entryX=0.652;entryY=0.92;entryDx=0;entryDy=0;entryPerimeter=0;exitX=0.25;exitY=0;exitDx=0;exitDy=0;" edge="1" parent="1" source="A7aOmcGS7sVbuuhgdiNV-123" target="A7aOmcGS7sVbuuhgdiNV-124">
          <mxGeometry width="50" height="50" relative="1" as="geometry">
            <mxPoint x="1530" y="490" as="sourcePoint" />
            <mxPoint x="1580" y="440" as="targetPoint" />
          </mxGeometry>
        </mxCell>
        <mxCell id="A7aOmcGS7sVbuuhgdiNV-128" value="" style="endArrow=none;html=1;rounded=0;entryX=0.293;entryY=-0.047;entryDx=0;entryDy=0;entryPerimeter=0;exitX=0.306;exitY=1.082;exitDx=0;exitDy=0;exitPerimeter=0;" edge="1" parent="1" source="A7aOmcGS7sVbuuhgdiNV-123" target="A7aOmcGS7sVbuuhgdiNV-125">
          <mxGeometry width="50" height="50" relative="1" as="geometry">
            <mxPoint x="1530" y="490" as="sourcePoint" />
            <mxPoint x="1580" y="440" as="targetPoint" />
          </mxGeometry>
        </mxCell>
        <mxCell id="A7aOmcGS7sVbuuhgdiNV-129" value="" style="endArrow=none;html=1;rounded=0;exitX=1;exitY=0.25;exitDx=0;exitDy=0;entryX=0;entryY=1;entryDx=0;entryDy=0;" edge="1" parent="1" source="A7aOmcGS7sVbuuhgdiNV-123" target="A7aOmcGS7sVbuuhgdiNV-126">
          <mxGeometry width="50" height="50" relative="1" as="geometry">
            <mxPoint x="1530" y="490" as="sourcePoint" />
            <mxPoint x="1580" y="440" as="targetPoint" />
          </mxGeometry>
        </mxCell>
        <mxCell id="A7aOmcGS7sVbuuhgdiNV-130" value="INCLUDES" style="rhombus;whiteSpace=wrap;html=1;" vertex="1" parent="1">
          <mxGeometry x="1288" y="-12" width="100" height="47" as="geometry" />
        </mxCell>
        <mxCell id="A7aOmcGS7sVbuuhgdiNV-131" value="" style="endArrow=none;html=1;rounded=0;entryX=1;entryY=0.5;entryDx=0;entryDy=0;shape=link;exitX=0;exitY=0.5;exitDx=0;exitDy=0;" edge="1" parent="1" source="A7aOmcGS7sVbuuhgdiNV-130" target="A7aOmcGS7sVbuuhgdiNV-36">
          <mxGeometry width="50" height="50" relative="1" as="geometry">
            <mxPoint x="1330" y="460" as="sourcePoint" />
            <mxPoint x="1380" y="410" as="targetPoint" />
          </mxGeometry>
        </mxCell>
        <mxCell id="A7aOmcGS7sVbuuhgdiNV-132" value="" style="endArrow=none;html=1;rounded=0;entryX=0.5;entryY=1;entryDx=0;entryDy=0;exitX=0;exitY=0.25;exitDx=0;exitDy=0;" edge="1" parent="1" source="A7aOmcGS7sVbuuhgdiNV-123" target="A7aOmcGS7sVbuuhgdiNV-130">
          <mxGeometry width="50" height="50" relative="1" as="geometry">
            <mxPoint x="1330" y="460" as="sourcePoint" />
            <mxPoint x="1380" y="410" as="targetPoint" />
          </mxGeometry>
        </mxCell>
        <mxCell id="A7aOmcGS7sVbuuhgdiNV-137" value="SUB_SERVICE" style="shape=ext;margin=3;double=1;whiteSpace=wrap;html=1;align=center;" vertex="1" parent="1">
          <mxGeometry x="1085" y="531" width="100" height="40" as="geometry" />
        </mxCell>
        <mxCell id="A7aOmcGS7sVbuuhgdiNV-138" value="SubserviceId" style="ellipse;whiteSpace=wrap;html=1;" vertex="1" parent="1">
          <mxGeometry x="1154" y="465" width="79" height="30" as="geometry" />
        </mxCell>
        <mxCell id="A7aOmcGS7sVbuuhgdiNV-139" value="NoOfSubservices" style="ellipse;whiteSpace=wrap;html=1;dashed=1;dashPattern=12 12;" vertex="1" parent="1">
          <mxGeometry x="1245" y="485" width="110" height="26" as="geometry" />
        </mxCell>
        <mxCell id="A7aOmcGS7sVbuuhgdiNV-140" value="" style="endArrow=none;html=1;rounded=0;exitX=0.267;exitY=0.989;exitDx=0;exitDy=0;exitPerimeter=0;entryX=0.5;entryY=0;entryDx=0;entryDy=0;" edge="1" parent="1" source="A7aOmcGS7sVbuuhgdiNV-138" target="A7aOmcGS7sVbuuhgdiNV-137">
          <mxGeometry width="50" height="50" relative="1" as="geometry">
            <mxPoint x="1550" y="570" as="sourcePoint" />
            <mxPoint x="1600" y="520" as="targetPoint" />
          </mxGeometry>
        </mxCell>
        <mxCell id="A7aOmcGS7sVbuuhgdiNV-141" value="" style="endArrow=none;html=1;rounded=0;exitX=0.407;exitY=1.078;exitDx=0;exitDy=0;exitPerimeter=0;entryX=1;entryY=0.5;entryDx=0;entryDy=0;" edge="1" parent="1" source="A7aOmcGS7sVbuuhgdiNV-139" target="A7aOmcGS7sVbuuhgdiNV-137">
          <mxGeometry width="50" height="50" relative="1" as="geometry">
            <mxPoint x="1550" y="570" as="sourcePoint" />
            <mxPoint x="1600" y="520" as="targetPoint" />
          </mxGeometry>
        </mxCell>
        <mxCell id="A7aOmcGS7sVbuuhgdiNV-142" value="TechnologyId" style="ellipse;whiteSpace=wrap;html=1;" vertex="1" parent="1">
          <mxGeometry x="1068" y="620" width="81" height="30" as="geometry" />
        </mxCell>
        <mxCell id="A7aOmcGS7sVbuuhgdiNV-143" value="" style="endArrow=none;html=1;rounded=0;exitX=0.5;exitY=0;exitDx=0;exitDy=0;entryX=0.5;entryY=1;entryDx=0;entryDy=0;" edge="1" parent="1" source="A7aOmcGS7sVbuuhgdiNV-142" target="A7aOmcGS7sVbuuhgdiNV-137">
          <mxGeometry width="50" height="50" relative="1" as="geometry">
            <mxPoint x="1550" y="670" as="sourcePoint" />
            <mxPoint x="1600" y="620" as="targetPoint" />
          </mxGeometry>
        </mxCell>
        <mxCell id="A7aOmcGS7sVbuuhgdiNV-144" value="PROVIDE" style="shape=rhombus;double=1;perimeter=rhombusPerimeter;whiteSpace=wrap;html=1;align=center;" vertex="1" parent="1">
          <mxGeometry x="957" y="303" width="120" height="60" as="geometry" />
        </mxCell>
        <mxCell id="A7aOmcGS7sVbuuhgdiNV-145" value="" style="endArrow=none;html=1;rounded=0;exitX=1;exitY=1;exitDx=0;exitDy=0;entryX=0.5;entryY=0;entryDx=0;entryDy=0;" edge="1" parent="1" source="A7aOmcGS7sVbuuhgdiNV-36" target="A7aOmcGS7sVbuuhgdiNV-144">
          <mxGeometry width="50" height="50" relative="1" as="geometry">
            <mxPoint x="1480" y="380" as="sourcePoint" />
            <mxPoint x="1530" y="330" as="targetPoint" />
          </mxGeometry>
        </mxCell>
        <mxCell id="A7aOmcGS7sVbuuhgdiNV-146" value="" style="endArrow=none;html=1;rounded=0;entryX=0.5;entryY=1;entryDx=0;entryDy=0;exitX=0;exitY=0;exitDx=0;exitDy=0;shape=link;" edge="1" parent="1" source="A7aOmcGS7sVbuuhgdiNV-137" target="A7aOmcGS7sVbuuhgdiNV-144">
          <mxGeometry width="50" height="50" relative="1" as="geometry">
            <mxPoint x="1480" y="620" as="sourcePoint" />
            <mxPoint x="1530" y="570" as="targetPoint" />
          </mxGeometry>
        </mxCell>
        <mxCell id="A7aOmcGS7sVbuuhgdiNV-151" value="Role" style="ellipse;whiteSpace=wrap;html=1;" vertex="1" parent="1">
          <mxGeometry x="-106" y="145" width="52" height="27" as="geometry" />
        </mxCell>
        <mxCell id="A7aOmcGS7sVbuuhgdiNV-152" value="" style="endArrow=none;html=1;rounded=0;exitX=0.704;exitY=0.022;exitDx=0;exitDy=0;entryX=0.5;entryY=1;entryDx=0;entryDy=0;exitPerimeter=0;" edge="1" parent="1" source="A7aOmcGS7sVbuuhgdiNV-151" target="A7aOmcGS7sVbuuhgdiNV-1">
          <mxGeometry width="50" height="50" relative="1" as="geometry">
            <mxPoint x="370" y="230" as="sourcePoint" />
            <mxPoint x="420" y="180" as="targetPoint" />
          </mxGeometry>
        </mxCell>
        <mxCell id="A7aOmcGS7sVbuuhgdiNV-153" value="ISA" style="verticalLabelPosition=bottom;verticalAlign=top;html=1;shape=mxgraph.basic.acute_triangle;dx=0.5;" vertex="1" parent="1">
          <mxGeometry x="-25" y="166" width="45" height="34" as="geometry" />
        </mxCell>
        <mxCell id="A7aOmcGS7sVbuuhgdiNV-154" value="" style="endArrow=none;html=1;rounded=0;exitX=0.75;exitY=1;exitDx=0;exitDy=0;entryX=0;entryY=0;entryDx=22.5;entryDy=0;entryPerimeter=0;" edge="1" parent="1" source="A7aOmcGS7sVbuuhgdiNV-1" target="A7aOmcGS7sVbuuhgdiNV-153">
          <mxGeometry width="50" height="50" relative="1" as="geometry">
            <mxPoint x="370" y="230" as="sourcePoint" />
            <mxPoint x="420" y="180" as="targetPoint" />
          </mxGeometry>
        </mxCell>
        <mxCell id="A7aOmcGS7sVbuuhgdiNV-155" value="" style="endArrow=none;html=1;rounded=0;exitX=1;exitY=1;exitDx=0;exitDy=0;exitPerimeter=0;entryX=0;entryY=0.5;entryDx=0;entryDy=0;" edge="1" parent="1" source="A7aOmcGS7sVbuuhgdiNV-153" target="A7aOmcGS7sVbuuhgdiNV-19">
          <mxGeometry width="50" height="50" relative="1" as="geometry">
            <mxPoint x="370" y="400" as="sourcePoint" />
            <mxPoint x="54" y="200" as="targetPoint" />
          </mxGeometry>
        </mxCell>
        <mxCell id="A7aOmcGS7sVbuuhgdiNV-156" value="" style="endArrow=none;html=1;rounded=0;exitX=0;exitY=1;exitDx=0;exitDy=0;exitPerimeter=0;entryX=0.25;entryY=0;entryDx=0;entryDy=0;" edge="1" parent="1" source="A7aOmcGS7sVbuuhgdiNV-153" target="A7aOmcGS7sVbuuhgdiNV-14">
          <mxGeometry width="50" height="50" relative="1" as="geometry">
            <mxPoint x="33" y="297" as="sourcePoint" />
            <mxPoint x="-231" y="426" as="targetPoint" />
          </mxGeometry>
        </mxCell>
        <mxCell id="A7aOmcGS7sVbuuhgdiNV-166" value="" style="endArrow=none;html=1;rounded=0;fontSize=12;startSize=8;endSize=8;curved=1;entryX=0;entryY=0.5;entryDx=0;entryDy=0;exitX=1;exitY=0.25;exitDx=0;exitDy=0;" edge="1" parent="1" source="A7aOmcGS7sVbuuhgdiNV-14" target="A7aOmcGS7sVbuuhgdiNV-109">
          <mxGeometry relative="1" as="geometry">
            <mxPoint x="341" y="471" as="sourcePoint" />
            <mxPoint x="396" y="629" as="targetPoint" />
            <Array as="points" />
          </mxGeometry>
        </mxCell>
        <mxCell id="A7aOmcGS7sVbuuhgdiNV-167" value="" style="endArrow=none;html=1;rounded=0;fontSize=12;startSize=8;endSize=8;curved=1;entryX=0;entryY=0.5;entryDx=0;entryDy=0;exitX=1;exitY=0.5;exitDx=0;exitDy=0;" edge="1" parent="1" source="A7aOmcGS7sVbuuhgdiNV-14" target="A7aOmcGS7sVbuuhgdiNV-56">
          <mxGeometry relative="1" as="geometry">
            <mxPoint x="269" y="300" as="sourcePoint" />
            <mxPoint x="709" y="291" as="targetPoint" />
          </mxGeometry>
        </mxCell>
        <mxCell id="A7aOmcGS7sVbuuhgdiNV-170" value="" style="endArrow=none;html=1;rounded=0;fontSize=12;startSize=8;endSize=8;curved=1;exitX=1;exitY=0.5;exitDx=0;exitDy=0;entryX=0.5;entryY=0;entryDx=0;entryDy=0;" edge="1" parent="1" source="A7aOmcGS7sVbuuhgdiNV-91" target="A7aOmcGS7sVbuuhgdiNV-58">
          <mxGeometry relative="1" as="geometry">
            <mxPoint x="659" y="234" as="sourcePoint" />
            <mxPoint x="819" y="234" as="targetPoint" />
          </mxGeometry>
        </mxCell>
        <mxCell id="A7aOmcGS7sVbuuhgdiNV-171" value="" style="shape=link;html=1;rounded=0;fontSize=12;startSize=8;endSize=8;curved=1;entryX=0;entryY=0.5;entryDx=0;entryDy=0;exitX=1;exitY=0.25;exitDx=0;exitDy=0;" edge="1" parent="1" source="A7aOmcGS7sVbuuhgdiNV-1" target="A7aOmcGS7sVbuuhgdiNV-100">
          <mxGeometry width="100" relative="1" as="geometry">
            <mxPoint x="468" y="-17" as="sourcePoint" />
            <mxPoint x="922" y="99" as="targetPoint" />
          </mxGeometry>
        </mxCell>
        <mxCell id="A7aOmcGS7sVbuuhgdiNV-172" value="" style="shape=link;html=1;rounded=0;fontSize=12;startSize=8;endSize=8;curved=1;entryX=0.688;entryY=-0.007;entryDx=0;entryDy=0;entryPerimeter=0;exitX=1;exitY=0.5;exitDx=0;exitDy=0;" edge="1" parent="1" source="A7aOmcGS7sVbuuhgdiNV-100" target="A7aOmcGS7sVbuuhgdiNV-58">
          <mxGeometry width="100" relative="1" as="geometry">
            <mxPoint x="713" y="145" as="sourcePoint" />
            <mxPoint x="813" y="145" as="targetPoint" />
          </mxGeometry>
        </mxCell>
        <mxCell id="A7aOmcGS7sVbuuhgdiNV-175" value="" style="shape=link;html=1;rounded=0;fontSize=12;startSize=8;endSize=8;curved=1;exitX=0.5;exitY=1;exitDx=0;exitDy=0;entryX=0;entryY=0.5;entryDx=0;entryDy=0;" edge="1" parent="1" source="A7aOmcGS7sVbuuhgdiNV-56" target="A7aOmcGS7sVbuuhgdiNV-47">
          <mxGeometry width="100" relative="1" as="geometry">
            <mxPoint x="839" y="378" as="sourcePoint" />
            <mxPoint x="939" y="378" as="targetPoint" />
          </mxGeometry>
        </mxCell>
        <mxCell id="A7aOmcGS7sVbuuhgdiNV-178" value="Payer" style="text;html=1;align=center;verticalAlign=middle;resizable=0;points=[];autosize=1;strokeColor=none;fillColor=none;fontSize=16;" vertex="1" parent="1">
          <mxGeometry x="554.5" y="7.5" width="60" height="31" as="geometry" />
        </mxCell>
        <mxCell id="A7aOmcGS7sVbuuhgdiNV-179" value="Paid" style="text;html=1;align=center;verticalAlign=middle;resizable=0;points=[];autosize=1;strokeColor=none;fillColor=none;fontSize=16;rotation=-75;" vertex="1" parent="1">
          <mxGeometry x="728" y="70" width="50" height="31" as="geometry" />
        </mxCell>
        <mxCell id="A7aOmcGS7sVbuuhgdiNV-181" value="1" style="text;html=1;align=center;verticalAlign=middle;resizable=0;points=[];autosize=1;strokeColor=none;fillColor=none;fontSize=16;" vertex="1" parent="1">
          <mxGeometry x="655.5" y="-4" width="27" height="31" as="geometry" />
        </mxCell>
        <mxCell id="A7aOmcGS7sVbuuhgdiNV-183" value="N" style="text;html=1;align=center;verticalAlign=middle;resizable=0;points=[];autosize=1;strokeColor=none;fillColor=none;fontSize=16;" vertex="1" parent="1">
          <mxGeometry x="751" y="3" width="30" height="31" as="geometry" />
        </mxCell>
        <mxCell id="A7aOmcGS7sVbuuhgdiNV-184" value="1" style="text;html=1;align=center;verticalAlign=middle;resizable=0;points=[];autosize=1;strokeColor=none;fillColor=none;fontSize=16;" vertex="1" parent="1">
          <mxGeometry x="522" y="62" width="27" height="31" as="geometry" />
        </mxCell>
        <mxCell id="A7aOmcGS7sVbuuhgdiNV-185" value="N" style="text;html=1;align=center;verticalAlign=middle;resizable=0;points=[];autosize=1;strokeColor=none;fillColor=none;fontSize=16;" vertex="1" parent="1">
          <mxGeometry x="665" y="57.5" width="30" height="31" as="geometry" />
        </mxCell>
        <mxCell id="A7aOmcGS7sVbuuhgdiNV-186" value="Reviewer" style="text;html=1;align=center;verticalAlign=middle;resizable=0;points=[];autosize=1;strokeColor=none;fillColor=none;fontSize=16;rotation=0;" vertex="1" parent="1">
          <mxGeometry x="399" y="66" width="85" height="31" as="geometry" />
        </mxCell>
        <mxCell id="A7aOmcGS7sVbuuhgdiNV-188" value="Reviewed" style="text;html=1;align=center;verticalAlign=middle;resizable=0;points=[];autosize=1;strokeColor=none;fillColor=none;fontSize=16;rotation=-85;" vertex="1" parent="1">
          <mxGeometry x="598" y="169" width="88" height="31" as="geometry" />
        </mxCell>
        <mxCell id="A7aOmcGS7sVbuuhgdiNV-191" value="1" style="text;html=1;align=center;verticalAlign=middle;resizable=0;points=[];autosize=1;strokeColor=none;fillColor=none;fontSize=16;" vertex="1" parent="1">
          <mxGeometry x="832" y="154" width="27" height="31" as="geometry" />
        </mxCell>
        <mxCell id="A7aOmcGS7sVbuuhgdiNV-192" value="Container" style="text;html=1;align=center;verticalAlign=middle;resizable=0;points=[];autosize=1;strokeColor=none;fillColor=none;fontSize=16;rotation=-60;" vertex="1" parent="1">
          <mxGeometry x="742" y="224" width="87" height="31" as="geometry" />
        </mxCell>
        <mxCell id="A7aOmcGS7sVbuuhgdiNV-193" value="Contained" style="text;html=1;align=center;verticalAlign=middle;resizable=0;points=[];autosize=1;strokeColor=none;fillColor=none;fontSize=16;rotation=-80;" vertex="1" parent="1">
          <mxGeometry x="868" y="88" width="91" height="31" as="geometry" />
        </mxCell>
        <mxCell id="A7aOmcGS7sVbuuhgdiNV-194" value="N" style="text;html=1;align=center;verticalAlign=middle;resizable=0;points=[];autosize=1;strokeColor=none;fillColor=none;fontSize=16;" vertex="1" parent="1">
          <mxGeometry x="929" y="141" width="30" height="31" as="geometry" />
        </mxCell>
        <mxCell id="A7aOmcGS7sVbuuhgdiNV-196" value="Provider" style="text;html=1;align=center;verticalAlign=middle;resizable=0;points=[];autosize=1;strokeColor=none;fillColor=none;fontSize=16;rotation=-75;" vertex="1" parent="1">
          <mxGeometry x="964" y="222" width="78" height="31" as="geometry" />
        </mxCell>
        <mxCell id="A7aOmcGS7sVbuuhgdiNV-197" value="Provided" style="text;html=1;align=center;verticalAlign=middle;resizable=0;points=[];autosize=1;strokeColor=none;fillColor=none;fontSize=16;rotation=65;" vertex="1" parent="1">
          <mxGeometry x="1035" y="419" width="81" height="31" as="geometry" />
        </mxCell>
        <mxCell id="A7aOmcGS7sVbuuhgdiNV-198" value="1" style="text;html=1;align=center;verticalAlign=middle;resizable=0;points=[];autosize=1;strokeColor=none;fillColor=none;fontSize=16;" vertex="1" parent="1">
          <mxGeometry x="1024" y="282" width="27" height="31" as="geometry" />
        </mxCell>
        <mxCell id="A7aOmcGS7sVbuuhgdiNV-199" value="N" style="text;html=1;align=center;verticalAlign=middle;resizable=0;points=[];autosize=1;strokeColor=none;fillColor=none;fontSize=16;" vertex="1" parent="1">
          <mxGeometry x="980" y="362" width="30" height="31" as="geometry" />
        </mxCell>
        <mxCell id="A7aOmcGS7sVbuuhgdiNV-201" value="Includer" style="text;html=1;align=center;verticalAlign=middle;resizable=0;points=[];autosize=1;strokeColor=none;fillColor=none;fontSize=16;" vertex="1" parent="1">
          <mxGeometry x="1199" y="-31" width="75" height="31" as="geometry" />
        </mxCell>
        <mxCell id="A7aOmcGS7sVbuuhgdiNV-202" value="1" style="text;html=1;align=center;verticalAlign=middle;resizable=0;points=[];autosize=1;strokeColor=none;fillColor=none;fontSize=16;" vertex="1" parent="1">
          <mxGeometry x="1282" y="-28" width="27" height="31" as="geometry" />
        </mxCell>
        <mxCell id="A7aOmcGS7sVbuuhgdiNV-204" value="Included" style="text;html=1;align=center;verticalAlign=middle;resizable=0;points=[];autosize=1;strokeColor=none;fillColor=none;fontSize=16;rotation=-56;" vertex="1" parent="1">
          <mxGeometry x="1233" y="71" width="79" height="31" as="geometry" />
        </mxCell>
        <mxCell id="A7aOmcGS7sVbuuhgdiNV-205" value="N" style="text;html=1;align=center;verticalAlign=middle;resizable=0;points=[];autosize=1;strokeColor=none;fillColor=none;fontSize=16;" vertex="1" parent="1">
          <mxGeometry x="1343" y="35" width="30" height="31" as="geometry" />
        </mxCell>
        <mxCell id="A7aOmcGS7sVbuuhgdiNV-206" value="Placed" style="text;html=1;align=center;verticalAlign=middle;resizable=0;points=[];autosize=1;strokeColor=none;fillColor=none;fontSize=16;rotation=65;" vertex="1" parent="1">
          <mxGeometry x="499" y="177.5" width="67" height="31" as="geometry" />
        </mxCell>
        <mxCell id="A7aOmcGS7sVbuuhgdiNV-212" value="Worked" style="text;html=1;align=center;verticalAlign=middle;resizable=0;points=[];autosize=1;strokeColor=none;fillColor=none;fontSize=16;rotation=15;" vertex="1" parent="1">
          <mxGeometry x="487" y="326" width="73" height="31" as="geometry" />
        </mxCell>
        <mxCell id="A7aOmcGS7sVbuuhgdiNV-213" value="1" style="text;html=1;align=center;verticalAlign=middle;resizable=0;points=[];autosize=1;strokeColor=none;fillColor=none;fontSize=16;" vertex="1" parent="1">
          <mxGeometry x="458" y="317.5" width="27" height="31" as="geometry" />
        </mxCell>
        <mxCell id="A7aOmcGS7sVbuuhgdiNV-214" value="N" style="text;html=1;align=center;verticalAlign=middle;resizable=0;points=[];autosize=1;strokeColor=none;fillColor=none;fontSize=16;" vertex="1" parent="1">
          <mxGeometry x="356" y="322" width="30" height="31" as="geometry" />
        </mxCell>
        <mxCell id="A7aOmcGS7sVbuuhgdiNV-215" value="Worker" style="text;html=1;align=center;verticalAlign=middle;resizable=0;points=[];autosize=1;strokeColor=none;fillColor=none;fontSize=16;rotation=-30;" vertex="1" parent="1">
          <mxGeometry x="267" y="337.5" width="69" height="31" as="geometry" />
        </mxCell>
        <mxCell id="A7aOmcGS7sVbuuhgdiNV-216" value="Entitler" style="text;html=1;align=center;verticalAlign=middle;resizable=0;points=[];autosize=1;strokeColor=none;fillColor=none;fontSize=16;rotation=-15;" vertex="1" parent="1">
          <mxGeometry x="249" y="474" width="68" height="31" as="geometry" />
        </mxCell>
        <mxCell id="A7aOmcGS7sVbuuhgdiNV-217" value="ToEntitle" style="text;html=1;align=center;verticalAlign=middle;resizable=0;points=[];autosize=1;strokeColor=none;fillColor=none;fontSize=16;rotation=60;" vertex="1" parent="1">
          <mxGeometry x="432" y="558" width="79" height="31" as="geometry" />
        </mxCell>
        <mxCell id="A7aOmcGS7sVbuuhgdiNV-218" value="1" style="text;html=1;align=center;verticalAlign=middle;resizable=0;points=[];autosize=1;strokeColor=none;fillColor=none;fontSize=16;" vertex="1" parent="1">
          <mxGeometry x="424" y="459" width="27" height="31" as="geometry" />
        </mxCell>
        <mxCell id="A7aOmcGS7sVbuuhgdiNV-219" value="1" style="text;html=1;align=center;verticalAlign=middle;resizable=0;points=[];autosize=1;strokeColor=none;fillColor=none;fontSize=16;" vertex="1" parent="1">
          <mxGeometry x="369" y="527" width="27" height="31" as="geometry" />
        </mxCell>
        <mxCell id="A7aOmcGS7sVbuuhgdiNV-220" value="1" style="text;html=1;align=center;verticalAlign=middle;resizable=0;points=[];autosize=1;strokeColor=none;fillColor=none;fontSize=16;" vertex="1" parent="1">
          <mxGeometry x="347" y="465" width="27" height="31" as="geometry" />
        </mxCell>
        <mxCell id="A7aOmcGS7sVbuuhgdiNV-221" value="Entitled" style="text;html=1;align=center;verticalAlign=middle;resizable=0;points=[];autosize=1;strokeColor=none;fillColor=none;fontSize=16;rotation=-35;" vertex="1" parent="1">
          <mxGeometry x="444.5" y="428" width="71" height="31" as="geometry" />
        </mxCell>
        <mxCell id="A7aOmcGS7sVbuuhgdiNV-230" value="" style="endArrow=none;html=1;rounded=0;exitX=1;exitY=0.5;exitDx=0;exitDy=0;entryX=0.75;entryY=0;entryDx=0;entryDy=0;" edge="1" parent="1" source="A7aOmcGS7sVbuuhgdiNV-20" target="A7aOmcGS7sVbuuhgdiNV-19">
          <mxGeometry width="50" height="50" relative="1" as="geometry">
            <mxPoint x="157" y="145" as="sourcePoint" />
            <mxPoint x="138" y="193" as="targetPoint" />
          </mxGeometry>
        </mxCell>
        <mxCell id="A7aOmcGS7sVbuuhgdiNV-19" value="ADMIN" style="rounded=0;whiteSpace=wrap;html=1;" vertex="1" parent="1">
          <mxGeometry x="78" y="192" width="100" height="30" as="geometry" />
        </mxCell>
        <mxCell id="A7aOmcGS7sVbuuhgdiNV-232" value="Designator" style="text;html=1;align=center;verticalAlign=middle;resizable=0;points=[];autosize=1;strokeColor=none;fillColor=none;fontSize=16;rotation=-75;" vertex="1" parent="1">
          <mxGeometry x="46" y="266" width="95" height="31" as="geometry" />
        </mxCell>
        <mxCell id="A7aOmcGS7sVbuuhgdiNV-233" value="1" style="text;html=1;align=center;verticalAlign=middle;resizable=0;points=[];autosize=1;strokeColor=none;fillColor=none;fontSize=16;" vertex="1" parent="1">
          <mxGeometry x="59" y="333" width="27" height="31" as="geometry" />
        </mxCell>
        <mxCell id="A7aOmcGS7sVbuuhgdiNV-235" value="Designated" style="text;html=1;align=center;verticalAlign=middle;resizable=0;points=[];autosize=1;strokeColor=none;fillColor=none;fontSize=16;rotation=-75;" vertex="1" parent="1">
          <mxGeometry x="-106" y="439" width="99" height="31" as="geometry" />
        </mxCell>
        <mxCell id="A7aOmcGS7sVbuuhgdiNV-236" value="N" style="text;html=1;align=center;verticalAlign=middle;resizable=0;points=[];autosize=1;strokeColor=none;fillColor=none;fontSize=16;" vertex="1" parent="1">
          <mxGeometry x="-34" y="348.5" width="30" height="31" as="geometry" />
        </mxCell>
      </root>
    </mxGraphModel>
  </diagram>
</mxfile>
